<?xml version="1.0" encoding="utf-8"?>
<!-- Generator: Adobe Illustrator 16.2.1, SVG Export Plug-In . SVG Version: 6.00 Build 0)  -->
<!DOCTYPE svg PUBLIC "-//W3C//DTD SVG 1.1//EN" "http://www.w3.org/Graphics/SVG/1.1/DTD/svg11.dtd">
<svg version="1.1" id="Layer_1" xmlns="http://www.w3.org/2000/svg" xmlns:xlink="http://www.w3.org/1999/xlink" x="0px" y="0px"
	 width="753px" height="334px" viewBox="0 0 753 334" enable-background="new 0 0 753 334" xml:space="preserve">
<g>
	<path fill-rule="evenodd" clip-rule="evenodd" fill="#D1D1D1" stroke="#231F20" stroke-width="0.5" stroke-miterlimit="10" d="
		M672.646,156.792c-0.796,1.433-2.188,0.943-3.367,0.973c-1.312,0.033-2.421,0.234-3.28,1.388
		c-5.515,7.406-12.987,12.323-21.053,16.491c-13.356,6.901-27.549,11.829-41.39,17.588c-10.092,4.199-20.08,8.643-28.735,15.474
		c-5.161,4.073-9.531,8.851-11.365,15.436c-0.48,1.727-0.787,3.255,0.88,4.739c1.371,1.223,1.02,3.179-0.547,3.771
		c-3.46,1.306-6.074,3.972-9.554,5.254c-9.056,3.337-18.48,4.984-27.927,6.583c-17.573,2.975-35.294,4.811-52.995,6.793
		c-26.714,2.991-53.51,5.346-80.006,10.048c-7.95,1.411-15.908,2.926-23.364,6.243c-0.986,0.438-1.915,1.004-2.881,1.492
		c-1.385,0.699-2.056,1.628-1.245,3.209c0.35,0.681,0.533,1.666,0.005,2.15c-1.965,1.799-2.417,4.122-2.288,6.815
		c-2.159,3.012-0.869-1.397-0.848-1.99c0.054-1.496-0.325-2.697-1.463-3.794c-1.231-1.187-1.451-2.739-0.003-3.933
		c1.453-1.196,1.497-2.675,1.368-4.287c-1.454-18.134-8.869-33.604-20.826-47.125c-13.786-15.589-31.016-26.622-48.676-37.094
		c-14.549-8.626-29.625-16.299-44.429-24.467c-16.717-9.225-33.284-18.704-48.091-30.871c-11.727-9.637-22.083-20.517-28.869-34.335
		c-2.427-4.943-4.37-10.086-5.625-15.468c0.163-0.279,0.369-0.314,0.616-0.104c2.364,7.387,5.009,14.63,9.11,21.299
		c7.037,11.439,16.288,20.805,26.704,29.114c13.99,11.161,29.383,20.133,44.985,28.78c22.28,12.349,45.194,23.603,66.257,38.067
		c12.827,8.809,24.737,18.655,34.088,31.248c8.672,11.679,14.144,24.651,15.323,39.27c0.361,4.484,0.306,4.466,4.234,2.358
		c7.465-4.002,15.703-5.48,23.87-7.064c13.653-2.647,27.455-4.359,41.265-5.95c16.694-1.924,33.398-3.76,50.106-5.56
		c18.128-1.952,36.231-4.081,54.14-7.568c7.031-1.368,14.025-2.979,20.478-6.281c1.771-0.906,3.87-1.638,2.093-4.355
		c-0.465-0.71-0.079-1.701,0.561-2.292c1.663-1.534,0.904-2.964-0.048-4.438c-2.351-3.638-5.907-5.813-9.585-7.793
		c-7.065-3.803-14.705-6.254-22.118-9.238c-7.108-2.861-14.336-5.537-19.71-11.416c-0.312-0.341-0.868-0.459-1.31-0.682
		c-0.309-0.335-0.286-0.667,0.01-0.996c-0.833-1.609-1.602-3.162-3.214-4.309c-1.682-1.196-1.747-3.01-0.146-4.479
		c1.021-0.938,1.369-1.973,1.362-3.297c-0.043-8.303-0.049-16.605-0.067-24.909c0.351-1.315,1.285-1.362,2.364-1.093
		c0.982,0.575,1.105,1.441,0.621,2.352c-0.704,1.319-0.682,2.724-0.683,4.138c-0.005,5.91,0.013,11.821-0.011,17.731
		c-0.007,1.713,0.25,3.271,1.386,4.664c1.072,1.315,1.41,2.913,0.564,4.444c-1.252,2.264-0.393,3.939,1.152,5.589
		c3.812,4.071,8.782,6.273,13.751,8.395c7.499,3.202,15.229,5.845,22.7,9.125c4.971,2.182,9.632,4.84,13.126,8.688
		c-0.798-2.255-0.952-4.997-1.61-7.632c-3.144-12.576-9.583-23.316-18.211-32.841c-8.556-9.446-18.579-17.109-29.237-24
		c-1.573-1.018-3.272-1.969-3.749-4.031c0.081-0.252,0.239-0.438,0.475-0.559c11.164,6.875,21.744,14.552,30.961,23.901
		c11.197,11.357,19.508,24.434,22.531,40.402c0.244,1.291,0.478,2.585,0.775,4.2c0.896-0.894,0.866-1.837,1.034-2.645
		c2.398-11.582,8.076-21.396,16.037-30.008c11.402-12.335,25.31-21.275,39.803-29.415c14.669-8.238,29.828-15.544,44.708-23.381
		c4.046-2.132,4.259-2.424,1.684-6.048c-3.607-5.075-7.456-9.979-11.201-14.956c-0.136-0.592-0.314-1.209,0.659-1.184
		c2.581,4.988,6.271,9.178,9.711,13.552c1.022,1.301,1.99,2.687,2.725,4.161c0.813,1.631,1.649,1.491,3.165,0.878
		c4.254-1.724,6.061-5.782,8.863-8.869c2.348-2.584,4.294-5.499,5.958-8.585c0.196-0.146,0.387-0.147,0.571,0.022
		c-1.248,3.73-3.914,6.521-6.29,9.505c-0.853,1.071-1.671,2.172-2.326,3.445c3.137-1.046,5.717-2.962,8.429-4.628
		c8.17-5.019,15.886-10.688,22.778-17.34c9.626-9.289,16.797-20.148,19.84-33.402c0.122-0.134,0.244-0.178,0.365-0.131
		c0.121,0.046,0.182,0.092,0.182,0.137c-1.073,6.872-3.923,13.058-7.536,18.896c-6.642,10.733-15.824,19.002-25.95,26.321
		c-5.743,4.15-11.672,8.015-17.881,11.427c-4.944,2.717-5.465,7.592-6.24,12.365c-0.143,0.881,0.571,1.304,1.111,1.822
		c1.114,1.071,1.501,2.714,0.424,3.557c-2.067,1.616-2.379,3.828-2.97,6.023c-0.121-0.003-0.241-0.006-0.362-0.008
		c-1.736-2.392-2.62-5.132-3.146-7.99c-0.143-0.769,0.521-1.374,0.993-1.952c0.921-1.128,1.099-2.387,0.747-3.763
		c-0.507-1.984-1.462-2.472-3.296-1.494c-18.071,9.633-36.681,18.268-54.158,28.998c-10.52,6.458-20.685,13.428-29.132,22.572
		c-6.334,6.855-11.494,14.459-14.462,23.402c-0.696,2.097-1.546,4.129-2.475,6.396c1.713-5.377,5.845-8.543,9.732-11.688
		c7.97-6.444,17.298-10.574,26.654-14.565c13.019-5.555,26.433-10.176,39.194-16.327c9.64-4.646,18.98-9.803,25.226-19.009
		c0.578-0.853,1.228-1.622,2.448-1.27C669.249,156.135,671.21,155.375,672.646,156.792z"/>
	<path fill-rule="evenodd" clip-rule="evenodd" fill="#CCCCCC" stroke="#231F20" stroke-width="0.5" stroke-miterlimit="10" d="
		M164.124,65.269c0.057-1.539-0.06-2.937-1.547-3.95c-1.254-0.854-1.572-2.235-0.789-3.544c1.018-1.699,0.165-2.59-1.12-3.475
		c-3.69-2.542-7.845-4.025-12.09-5.27c-11.861-3.478-24.042-5.376-36.224-7.266c-1.068-0.165-2.133-0.354-3.2-0.532
		c-0.368-2.562,1.79-2.525,3.063-2.368c4.257,0.527,8.489,0.747,12.758,0.333c0.489-0.048,0.977,0.175,1.45,0.333
		c1.917,0.643,3.878,0.879,5.891,0.653c0.668-0.075,1.417-0.163,1.958,0.185c2.533,1.632,5.624,1.121,8.045,2.169
		c-0.647-0.222-1.683-0.194-2.249-1.127c-0.016-0.025,0.076-0.132,0.133-0.185c0.115-0.107,0.264-0.099,0.432,0.01
		c0.707,0.105,1.413,0.21,2.12,0.315c0.032-0.129,0.064-0.258,0.097-0.387c-5.585-2.055-11.2-4.031-16.748-6.183
		c-5.887-2.283-11.744-4.689-16.632-8.849c-2.108-1.794-3.875-3.879-4.376-6.749c0.106-0.147,0.223-0.204,0.348-0.173
		c0.13,0.033,0.195,0.071,0.195,0.115c1.401,4.215,4.592,6.812,8.188,9.03c6.353,3.919,13.403,6.241,20.339,8.81
		c5.85,2.165,11.771,4.142,17.335,7.01c0.269,0.139,0.576,0.373,1.051-0.066c-5.233-3.014-10.725-5.344-16.137-7.831
		c-4.765-2.19-9.454-4.49-13.574-7.823c-3.002-2.428-5.226-5.323-6.244-9.082c0.314-0.376,0.661-0.369,1.032-0.09
		c1.008,5.213,4.762,8.229,8.879,10.854c4.355,2.775,9.03,4.972,13.774,7.008c5.812,2.494,11.397,5.43,16.848,8.628
		c0.578-0.087,1.004,0.338,1.523,0.451c0.468,0.322,0.935,0.646,1.403,0.968c-1.321-2.693-3.127-4.967-5.379-6.889
		c-3.351-2.86-6.452-5.985-9.405-9.24c-2.994-3.302-4.206-7.471-5.171-11.711c0.345-0.351,0.693-0.35,1.044-0.009
		c0.309,4.697,2.42,8.644,5.448,12.052c2.478,2.788,5.145,5.423,8.052,7.803c3.014,2.468,5.339,5.58,7.644,8.726
		c-0.68-3.301-2.127-6.247-3.784-9.112c-3.49-6.034-6.212-12.325-6.405-19.448c0.326-0.364,0.673-0.359,1.036-0.058
		c-0.231,4.961,1.115,9.577,3.282,13.946c2.421,4.881,5.389,9.492,6.949,14.799c0.243-0.043,0.486-0.087,0.729-0.131
		c0-9.508,0-19.017,0-28.524c0.114-0.155,0.234-0.212,0.36-0.17c0.129,0.043,0.193,0.089,0.193,0.138c0,9.77,0,19.539,0,29.309
		c1.833-6.174,5.703-11.283,8.25-17.015c1.734-3.905,2.803-7.988,2.704-12.312c0.354-0.343,0.702-0.345,1.047,0.013
		c-0.619,6.439-2.483,12.457-5.792,18.055c-1.512,2.56-2.712,5.309-3.964,8.013c-0.472,1.021-1.045,2.132-0.278,3.302
		c0.672-0.035,1.344-0.099,1.838-0.625c3.135-3.339,7.408-3.579,11.527-4.376c3.224-0.624,6.505-1.076,9.636-2.065
		c1.746-0.552,3.547-0.676,5.279-1.173c4.037-0.952,8.03-2.156,12.23-2.223c9.926-2.011,19.795-4.263,29.53-7.075
		c5.756-1.662,11.446-3.5,16.546-6.742c2.102-1.337,4.045-2.912,5.029-5.343c0.376-0.147,0.698-0.104,0.923,0.268
		c-1.448,3.489-4.526,5.238-7.594,6.9c-7.239,3.923-15.162,5.912-23.071,7.912c-2.803,0.709-5.609,1.41-8.305,2.616
		c3.301-0.661,6.61-1.287,9.902-1.99c9.193-1.965,18.397-3.9,27.239-7.193c3.595-1.338,7.063-2.93,10.167-5.238
		c1.164-0.865,2.107-1.876,2.691-3.209c0.375-0.209,0.703-0.171,0.97,0.188c-2.979,4.721-7.807,6.778-12.696,8.657
		c-6.585,2.53-13.395,4.327-20.297,5.771c-0.737,1.381-2.19,1.327-3.425,1.742c-3.263,1.096-6.773,0.461-10.244,1.536
		c1.552-0.399,2.894-0.808,4.32-0.659c0.681,0.764,1.643,0.745,2.524,1.009c0.935,0.279,2.415,0.107,2.255,1.821
		c-18.281,2.685-36.649,4.909-54.473,10.056c-3.767,1.087-7.438,2.468-10.717,4.68c-1.461,0.984-2.923,1.974-1.525,4.178
		c0.58,0.915,0.415,2.312-0.564,2.968c-1.611,1.078-1.631,2.556-1.542,4.162C164.552,65.405,164.336,65.402,164.124,65.269z"/>
	<path fill-rule="evenodd" clip-rule="evenodd" fill="#D1D1D1" stroke="#231F20" stroke-width="0.5" stroke-miterlimit="10" d="
		M369.098,65.273c3.708,4.939,9.014,7.607,14.507,9.845c7.558,3.079,15.228,5.883,22.861,8.774
		c5.546,2.101,10.833,4.678,15.655,8.253c-1.273-2.146-3.034-3.8-4.927-5.319c-3.262-2.619-6.908-4.652-10.499-6.759
		c-5.273-3.094-10.134-6.68-14.135-11.347c-0.229-0.676-0.372-1.346,0.138-1.971c3.139,5.771,8.609,8.906,13.892,12.234
		c4.717,2.971,9.636,5.622,13.737,9.507c1.625,1.54,2.827,3.423,4.673,5.373c-1.378-9.263-8.054-15.92-9.598-24.609
		c2.478,8.577,9.049,15.295,10.777,24.335c1.896-9.072,8.374-15.977,10.863-24.637c-0.448,4.38-2.512,8.143-4.601,11.905
		c-2.093,3.769-4.1,7.58-4.895,12.693c2.519-2.869,4.488-5.271,6.938-7.176c3.826-2.976,8.029-5.367,12.165-7.866
		c4.285-2.589,8.35-5.463,11.812-9.47c-0.529,1.814-1.581,3.024-3.937,4.973c-4.001,3.31-8.512,5.834-12.913,8.532
		c-3.624,2.221-7.226,4.488-10.139,7.655c-0.771,0.838-1.626,1.628-1.968,2.979c10.428-8.714,23.427-11.469,35.417-16.405
		c5.244-2.16,10.478-4.289,15.019-7.819c1.408-1.096,2.384-2.545,3.681-3.708l0.041,0.04c-0.243,2.162-1.945,3.236-3.428,4.391
		c-6.081,4.738-13.278,7.233-20.364,9.917c-8.484,3.212-17.221,5.816-25.045,10.592c-2.673,1.631-4.94,3.677-6.638,6.316
		c-0.767,1.192-1.143,2.332,0.108,3.58c1.064,1.062,1.183,2.552,0.166,3.637c-1.473,1.571-0.633,2.72,0.354,3.904
		c1.958,2.35,4.506,3.936,7.18,5.326c8.729,4.541,18.261,6.743,27.625,9.422c9.926,2.841,20.018,5.138,29.532,9.296
		c4.455,1.946,8.504,4.426,11.514,8.46c0.718-1.004,0.461-1.857,0.469-2.652c0.138-13.075,1.107-26.093,2.346-39.105
		c0.583-6.121,1.141-12.262,1.191-18.431c0.03-3.658,0.293-7.314,0.47-10.971c0.031-0.631-0.162-1.415,0.73-1.654
		c0.4-0.107,0.927-0.136,1.134,0.265c0.381,0.738-0.531,0.897-0.765,1.384c-0.528,1.093-0.58,2.249-0.571,3.418
		c0.092,12.509-1.355,24.914-2.386,37.353c-0.783,9.452-1.397,18.931-1.144,28.434c0.011,0.398,0.088,0.795,0.17,1.503
		c2.071-1.637,3.512-3.583,5.522-4.896c6.656-4.349,14.157-6.634,21.64-8.942c11.219-3.461,22.713-6.055,33.577-10.629
		c4.172-1.756,8.151-3.842,11.197-7.324c1.14-1.302,2.112-2.553,0.464-4.303c-0.941-0.999-0.784-2.513,0.162-3.45
		c1.515-1.499,0.861-2.804,0.09-4.25c-2.662-4.986-7.277-7.728-12.033-10.155c-6.007-3.065-12.195-5.773-18.269-8.714
		c-4.521-2.188-8.738-4.826-12.202-8.566c-0.884-0.954-1.608-1.885-1.826-3.169c0.118-0.139,0.24-0.188,0.365-0.147
		c0.126,0.041,0.189,0.084,0.189,0.128c2.859,4.647,7.223,7.487,11.889,10.008c7.333,3.96,15.229,6.746,22.463,10.918
		c3.122,1.802,5.86,4.046,8.959,7.062c-0.919-3.395-2.726-5.362-4.493-7.353c-3.927-4.419-8.993-7.7-12.516-12.526
		c-1.008-1.382-2.121-2.7-2.158-4.623c1.044,1.525,2.077,3.059,3.136,4.575c2.653,3.808,6.516,6.408,9.732,9.656
		c3.225,3.255,6.23,6.609,8.459,10.849c0-8.253,0-16.506,0-24.758c0.272-0.004,0.545-0.008,0.817-0.01c0,7.931,0,15.863,0,23.795
		c0.256,0.076,0.513,0.153,0.769,0.229c1.829-4.646,5.132-8.126,8.719-11.317c4.353-3.873,8.763-7.661,11.627-13.502
		c-0.221,2.64-1.191,4.503-3.854,7.146c-3.425,3.401-7.009,6.641-10.447,10.028c-2.173,2.141-3.834,4.656-4.877,7.55
		c7.426-7.586,17.323-10.75,26.473-15.198c4.948-2.406,9.906-4.765,13.842-8.782c1.122-1.146,1.985-2.45,2.885-3.746
		c0.207-0.254,0.401-0.245,0.584,0.027c-1.195,4.009-4.55,6.094-7.698,8.172c-5.851,3.863-12.358,6.505-18.733,9.367
		c-4.493,2.018-8.778,4.376-12.763,7.29c-1.852,1.354-3.336,2.979-4.535,4.914c-1.12,1.807-2.207,3.4-0.181,5.499
		c1.133,1.174,0.626,2.839-0.785,3.919c-0.588,0.449-1.414,0.731-1.775,1.312c-4.371,7.036-11.61,9.707-18.822,12.33
		c-9.94,3.614-20.229,6.113-30.332,9.211c-6.935,2.126-13.768,4.499-19.858,8.59c-1.257,0.845-2.374,1.835-3.341,2.982
		c-1.108,1.314-2.047,2.586-0.43,4.327c1.026,1.105,0.827,2.645-0.331,3.587c-1.539,1.252-1.562,2.815-1.474,4.503
		c-1.154,0.927-2.274-0.886-3.429-0.043c-0.535-1.151-1.377-1.957-2.495-2.596c-14.521-8.302-29.369-15.966-44.472-23.153
		c-7.21-3.432-14.33-7.056-21.46-10.653c-3.202-1.615-6.373-3.244-10.557-3.025c1.224-0.81,2.513-0.348,2.946-1.524
		c0.261-0.532,0.706-0.722,1.271-0.692c17.495,10.168,36.631,17.018,54.321,26.809c6.405,3.546,12.896,6.941,19.581,10.715
		c-0.455-1.708-0.34-3.128,0.179-4.553c0.706-1.942-0.575-3.166-1.871-4.25c-3.766-3.148-8.184-5.074-12.76-6.707
		c-9.899-3.532-20.17-5.803-30.195-8.896c-10.103-3.118-20.082-6.578-28.691-13.022c-0.247-0.186-0.622-0.224-0.939-0.328
		c-1.315-1.485-2.462-3.096-4.009-4.405c-1.607-1.36-2.063-3.19-0.909-5.159c0.838-1.428,0.497-2.701-0.431-3.933
		c-2.063-2.735-4.918-4.462-7.848-6.049c-6.467-3.502-13.42-5.832-20.305-8.329c-5.711-2.071-11.406-4.181-16.809-7.004
		c-2.527-1.32-4.758-3.044-6.992-4.783c-0.856-0.667-0.91-1.764-1.596-2.491c-0.03-0.642-0.06-1.282-0.09-1.923
		c0.112-0.156,0.226-0.21,0.341-0.161C369.039,65.171,369.098,65.221,369.098,65.273z"/>
	<path fill-rule="evenodd" clip-rule="evenodd" fill="#F9F9F9" stroke="#231F20" stroke-width="0.5" stroke-miterlimit="10" d="
		M368.671,67.207c2.125,0.869,3.585,2.666,5.448,3.907c6.37,4.241,13.558,6.657,20.651,9.27c6.788,2.499,13.66,4.79,20.049,8.24
		c3.444,1.859,6.805,3.868,9.032,7.267c0.964,1.472,1.598,2.801,0.079,4.449c-1.368,1.485-0.693,3.147,0.816,4.016
		c1.826,1.05,2.683,2.622,3.392,4.415c0.398,0.505,0.471,1.01-0.003,1.514c-0.488,0-0.976,0.001-1.464,0.002
		c-0.334-0.003-0.668-0.006-1.003-0.01c-13.28-7.321-26.68-14.44-39.084-23.235c-7.032-4.987-13.687-10.432-19.841-16.469
		c-0.568-0.558-1.986-0.983-1.034-2.316C366.808,68.216,368.015,68.49,368.671,67.207z"/>
	<path fill-rule="evenodd" clip-rule="evenodd" fill="#D1D1D1" stroke="#231F20" stroke-width="0.5" stroke-miterlimit="10" d="
		M140.635,41.236c1.003,1.401,2.953,0.939,4.098,2.28c-2.703-0.944-5.39-1.444-8.064-0.093c-0.166,0.084-0.571-0.01-0.684-0.158
		c-2.421-3.211-5.721-1.748-8.628-1.379c-1.648,0.209-0.297-0.992-0.979-1.195c-1.451-0.433-2.782,0.041-4.175,0.124
		c-2.066,0.124-4.157-0.229-6.235-0.211c-2.281,0.021-4.731-1.565-6.812,0.629c-9.647-1.343-19.298-2.656-28.941-4.032
		c-15.004-2.142-30.038-4.124-44.846-7.438c-6.833-1.529-13.652-3.129-19.956-6.339c-2.022-1.03-3.907-2.235-5.313-4.067
		c0.198-0.506,0.433-0.925,1.048-0.443c1.274,2.53,3.812,3.417,6.117,4.456c9.436,4.252,19.587,5.902,29.644,7.849
		c4.154,0.805,8.35,1.396,12.616,1.652c-4.056-0.868-8.124-1.69-12.167-2.615c-6.747-1.542-13.446-3.221-19.671-6.403
		c-2.203-1.126-4.087-2.548-5.583-4.503c0.173-0.526,0.439-0.857,1.037-0.497c1.333,3.057,4.275,4.103,6.968,5.263
		c9.155,3.945,18.906,5.758,28.628,7.619c4.884,0.935,9.792,1.743,14.787,2.136c-4.049-0.865-8.1-1.719-12.146-2.599
		c-6.429-1.396-12.8-3.034-18.842-5.672c-3.247-1.417-6.614-2.823-8.432-6.24c0.147-0.542,0.419-0.859,1.027-0.567
		c0.003,1.349,0.921,2.048,1.889,2.751c3.904,2.839,8.349,4.495,12.904,5.88c10.863,3.303,22.04,5.195,33.176,7.263
		c0.307,0.057,0.633,0.007,1.016-0.38c-3.115-0.684-6.239-1.322-9.34-2.059c-7.377-1.751-14.723-3.577-21.616-6.896
		c-3.009-1.448-5.49-3.424-7.56-5.987c0.252-0.363,0.578-0.402,0.956-0.216c3.105,4.455,7.951,6.194,12.724,7.874
		c11.185,3.938,22.821,6.07,34.444,8.219c1.961,0.362,3.931,0.683,5.897,1.022c1.996-0.729,3.899,0.647,5.879,0.255
		c1.009-0.134,1.999,0.305,3.009,0.106c1.817,0.106,3.516,0.812,5.084,1.012c-2.087-0.426-4.366-1.11-6.752-1.089
		c-1.019,0.01-1.752-0.392-2.25-1.262c-8.766-1.877-17.399-4.235-25.584-7.93c-3.827-1.728-7.676-3.666-9.407-7.975
		c0.091-0.164,0.2-0.232,0.326-0.208c0.135,0.027,0.203,0.063,0.203,0.108c2.545,4.269,6.743,6.405,11.067,8.158
		c12.023,4.875,24.723,7.365,37.311,10.228c0.199,0.045,0.436-0.076,1.368-0.262c-2.564-0.669-4.476-1.148-6.377-1.669
		c-8.443-2.309-16.877-4.651-24.638-8.854c-3.279-1.774-6.123-4.027-7.758-7.514c0.287-0.369,0.623-0.406,1.002-0.146
		c2.052,4.792,6.458,6.792,10.742,8.782c6.203,2.884,12.777,4.768,19.375,6.524c5.439,1.448,10.896,2.838,16.517,3.704
		c-1.058-0.329-2.121-0.64-3.17-0.99c-8.983-2.997-18.29-5.215-26.304-10.584c-2.713-1.817-5.154-3.974-6.16-7.286
		c0.248-0.374,0.576-0.412,0.957-0.229c0.518,2.867,2.561,4.613,4.722,6.187c4.559,3.318,9.714,5.479,15.027,7.219
		c7.278,2.382,14.616,4.581,21.922,6.878C137.39,39.953,139.112,40.328,140.635,41.236z"/>
	<path fill-rule="evenodd" clip-rule="evenodd" fill="#D3D3D3" stroke="#231F20" stroke-width="0.5" stroke-miterlimit="10" d="
		M194.625,41.272c-2.323,0.833-4.896,1.061-7.09,1.888c-3.417,1.288-7.128,0.911-10.459,2.523c-0.97,0.47-2.745,0.943-3.662,0.718
		c-2.16-0.532-2.901,0.875-4.075,1.882c-0.789,0.678-1.536,2.039-2.724,0.445c0.174-0.321,0.348-0.643,0.522-0.964
		c0.518-0.259,0.55-1.244,1.433-0.958c6.285-5.904,14.124-9.532,21.104-14.419c3.08-2.156,5.765-4.731,7.771-7.937
		c0.974-1.557,1.667-3.247,1.669-5.14c0.366-0.305,0.713-0.312,1.034,0.067c-1.16,6.17-5.255,10.202-10.031,13.717
		c-5.161,3.798-11.023,6.513-16.122,10.409c-0.448,0.343-1.049,0.54-1.317,1.529c2.201-1.209,4.171-2.319,6.166-3.382
		c7.262-3.868,15.133-6.498,22.15-10.857c4.505-2.799,8.685-5.927,10.116-11.459c0.354-0.33,0.7-0.334,1.037,0.025
		c-2.075,6.055-6.58,9.886-11.946,12.847c-5.907,3.26-12.074,5.99-18.233,8.732c-0.745,0.332-1.578,0.534-2.106,1.232
		c0.113,0.53,0.48,0.371,0.751,0.268c8.473-3.239,16.996-6.358,25.392-9.785c4.995-2.04,9.985-4.253,13.794-8.324
		c1.373-1.468,2.667-2.995,2.859-5.129c0.385-0.234,0.721-0.202,0.992,0.184c-1.72,5.441-6.022,8.414-10.684,10.928
		c-6.753,3.642-14.034,6.045-21.216,8.669c-2.411,0.881-4.823,1.756-7.235,2.635c0.153,0.654,0.529,0.396,0.753,0.315
		c10.734-3.812,21.867-6.382,32.514-10.466c4.438-1.703,8.747-3.646,12.569-6.529c1.964-1.481,3.511-3.279,4.275-5.666
		c0.379-0.312,0.72-0.269,1.025,0.109c-1.932,5.096-6.297,7.68-10.77,9.888c-7.703,3.805-15.899,6.341-24.196,8.526
		c-0.426,1.438-1.772,1.557-2.886,1.924C196.658,40.093,195.427,40.223,194.625,41.272z"/>
	<path fill-rule="evenodd" clip-rule="evenodd" fill="#D4D4D4" stroke="#231F20" stroke-width="0.5" stroke-miterlimit="10" d="
		M233.589,39.236c-1.459-1.217-4.071-0.126-4.96-2.48c0.557-1.33,1.981-1.134,2.843-1.112c4.644,0.118,9.146-0.759,13.639-1.657
		c1.537-0.308,3.018-0.147,4.524-0.204c12.07-2.001,24.11-4.163,35.549-8.691c3.285-1.301,6.704-2.654,8.42-6.196
		c0.613-0.438,0.857-0.052,1.044,0.466c-2.095,3.101-5.245,4.771-8.538,6.203c-8.203,3.564-16.912,5.354-25.605,7.186
		c-0.956,0.201-1.909,0.414-2.78,1.088c3.974-0.682,7.947-1.362,11.92-2.043c0.169,0.18,0.5,0.192,0.532,0.514
		c-0.508,0.225-1.016,0.449-1.524,0.674c0.026,0.128,0.053,0.255,0.079,0.383c3.328-0.537,6.666-1.018,9.981-1.623
		c10.475-1.913,21.018-3.61,30.954-7.644c2.849-1.156,6.065-2.064,7.474-5.351c0.582-0.218,0.871,0.057,1.004,0.596
		c-2.792,3.772-6.974,5.29-11.154,6.7c-11.479,3.871-23.411,5.72-35.305,7.722c-8.24,1.388-16.558,2.224-24.814,3.454
		C242.448,37.876,238.009,38.516,233.589,39.236z"/>
	<path fill-rule="evenodd" clip-rule="evenodd" fill="#D2D2D2" stroke="#231F20" stroke-width="0.5" stroke-miterlimit="10" d="
		M700.251,65.287c0.079,0.65,0.447,1.459,0.191,1.926c-2.043,3.729-2.781,7.979-4.951,11.684c-3.113,5.312-5.96,10.779-6.583,17.104
		c-0.157,1.597-0.167,2.848,1.159,4.024c1.575,1.398,1.31,3.004-0.278,4.246c-1.073,0.84-1.692,1.768-1.661,3.145
		c0.013,0.572-0.021,1.238-0.787,1.359c-0.302,0.048-0.765,0.014-0.93-0.177c-0.625-0.726,0.32-0.936,0.556-1.378
		c0.51-0.96,0.744-1.862-0.239-2.684c-1.966-1.641-2.033-3.324-0.048-4.989c0.897-0.753,0.852-1.663,0.76-2.712
		c-0.553-6.302-3.139-11.855-6.242-17.22c-1.801-3.114-3.284-6.354-4.155-9.854c-0.158-0.634-0.438-1.288-0.048-1.934
		c0.185-0.306,0.499-0.497,0.84-0.33c0.168,0.082,0.355,0.39,0.328,0.562c-0.548,3.47,1.311,6.251,2.721,9.098
		c2.636,5.325,5.94,10.344,7.263,16.419c1.401-8.177,7.223-14.263,9.604-21.876c0.488-1.563,1.301-3.088,0.508-4.82
		c-0.37-0.81,0.478-1.131,0.883-1.612C699.516,64.954,699.887,64.946,700.251,65.287z"/>
	<path fill-rule="evenodd" clip-rule="evenodd" fill="#D2D2D2" stroke="#231F20" stroke-width="0.5" stroke-miterlimit="10" d="
		M724.177,19.385c0.28,9.89,3.593,19.191,5.663,29.513c1.694-10.358,5.711-19.536,5.293-29.543c0.353-0.351,0.7-0.353,1.044,0.013
		c-0.186,5.765-1.002,11.435-2.624,16.975c-1.69,5.771-2.751,11.651-3.29,17.638c-0.12,1.328,0.438,2.171,1.327,3.033
		c1.325,1.287,1.613,2.953,0.163,4.159c-1.532,1.273-1.727,2.721-1.55,4.439c-0.686,0.567-0.854-0.031-1.088-0.482
		c0.119-1.531,0.015-2.908-1.298-4.075c-1.319-1.174-1.379-2.738-0.066-3.956c1.255-1.164,1.467-2.506,1.409-4.058
		c-0.221-5.878-1.699-11.514-3.244-17.138c-1.485-5.405-2.455-10.88-2.286-16.514c0.12-0.153,0.241-0.204,0.363-0.154
		S724.177,19.334,724.177,19.385z"/>
	<path fill-rule="evenodd" clip-rule="evenodd" fill="#D3D3D3" stroke="#231F20" stroke-width="0.5" stroke-miterlimit="10" d="
		M510.161,19.348c-0.013,11.4-0.017,22.802-0.047,34.202c-0.004,1.307,0.269,2.387,1.275,3.354c1.408,1.352,1.699,3.008-0.012,4.281
		c-1.508,1.122-0.955,2.891-1.964,4.903c-0.168-2.518-0.896-4.053-2.265-5.438c-1.021-1.034-0.64-2.615,0.511-3.563
		c1.333-1.1,1.491-2.453,1.487-4.008c-0.031-11.234-0.023-22.469-0.028-33.703C509.457,19,509.805,19.005,510.161,19.348z"/>
	<path fill-rule="evenodd" clip-rule="evenodd" fill="#D4D4D4" stroke="#231F20" stroke-width="0.5" stroke-miterlimit="10" d="
		M627.197,65.278c-0.194-0.009-0.389-0.018-0.583-0.027c0.894-1.448,1.245-2.752-0.162-4.246c-1.164-1.237-1.086-2.84,0.277-3.983
		c1.243-1.042,1.438-2.301,1.434-3.771c-0.03-11.297-0.026-22.595-0.033-33.892c0.346-0.355,0.691-0.355,1.038-0.001
		c-0.007,11.28-0.005,22.561-0.032,33.841c-0.004,1.458,0.185,2.711,1.354,3.812c1.307,1.229,1.658,3.024,0.153,4.139
		C629.096,62.296,628.365,63.927,627.197,65.278z"/>
	<path fill-rule="evenodd" clip-rule="evenodd" fill="#D4D4D4" stroke="#231F20" stroke-width="0.5" stroke-miterlimit="10" d="
		M369.098,65.273c-0.172,0.003-0.344,0.007-0.516,0.011c-1.367-1.393-2.42-3.027-4.049-4.25c-1.383-1.039-1.018-2.804,0.203-3.964
		c1.152-1.093,1.42-2.318,1.415-3.798c-0.033-11.305-0.028-22.608-0.036-33.913c0.347-0.355,0.692-0.355,1.039,0
		c-0.008,11.242-0.003,22.485-0.035,33.729c-0.005,1.557,0.159,2.912,1.502,4.004c1.19,0.969,1.413,2.502,0.417,3.578
		C367.468,62.367,367.928,63.756,369.098,65.273z"/>
	<path fill-rule="evenodd" clip-rule="evenodd" fill="#D4D4D4" stroke="#231F20" stroke-width="0.5" stroke-miterlimit="10" d="
		M557.664,19.358c-0.008,11.247-0.001,22.494-0.036,33.74c-0.005,1.562,0.188,2.899,1.508,4.006
		c1.276,1.069,1.347,2.622,0.268,3.791c-1.016,1.101-1.517,2.258-1.614,3.791c-0.734-1.418-1.433-2.64-2.71-3.635
		c-1.326-1.034-1.272-2.769,0.082-3.94c1.299-1.124,1.505-2.45,1.5-4.013c-0.034-11.246-0.028-22.493-0.036-33.739
		C556.972,19.003,557.317,19.003,557.664,19.358z"/>
	<path fill-rule="evenodd" clip-rule="evenodd" fill="#D4D4D4" stroke="#231F20" stroke-width="0.5" stroke-miterlimit="10" d="
		M438.658,19.359c-0.007,11.311-0.002,22.621-0.036,33.931c-0.004,1.482,0.254,2.709,1.457,3.771
		c1.437,1.27,1.338,2.877,0.051,4.179c-0.999,1.011-1.912,2.004-2.33,3.503c-0.082-1.491-0.623-2.533-1.654-3.519
		c-1.321-1.263-1.392-2.905,0.047-4.167c1.209-1.061,1.467-2.283,1.463-3.766c-0.033-11.311-0.028-22.621-0.035-33.932
		C437.966,19.003,438.312,19.003,438.658,19.359z"/>
	<path fill-rule="evenodd" clip-rule="evenodd" fill="#D3D3D3" stroke="#231F20" stroke-width="0.5" stroke-miterlimit="10" d="
		M483.623,65.247c0.654-1.642,1.268-3.153-0.343-4.777c-1.137-1.147-0.453-2.568,0.586-3.538c1.016-0.948,1.31-2.029,1.306-3.347
		c-0.032-11.412-0.037-22.824-0.05-34.237c0.357-0.342,0.705-0.347,1.042,0.029c-0.004,11.238,0.005,22.478-0.028,33.716
		c-0.004,1.559,0.176,2.899,1.498,4.005c1.272,1.065,1.463,2.803,0.262,3.748c-1.657,1.304-2.521,3.262-4.231,4.44
		C483.664,65.287,483.623,65.247,483.623,65.247z"/>
	<path fill-rule="evenodd" clip-rule="evenodd" fill="#D3D3D3" stroke="#231F20" stroke-width="0.5" stroke-miterlimit="10" d="
		M605.168,19.368c-0.004,11.24,0.006,22.48-0.025,33.72c-0.005,1.56,0.211,2.867,1.491,4.012c1.371,1.228,1.473,2.869,0.064,4.16
		c-1.064,0.978-1.951,1.985-2.447,3.479c0.004-1.797-0.802-3.048-1.891-4.277c-0.97-1.096-0.641-2.438,0.375-3.367
		c1.163-1.065,1.455-2.3,1.449-3.793c-0.042-11.323-0.04-22.646-0.053-33.969C604.489,19.005,604.835,19,605.168,19.368z"/>
	<path fill-rule="evenodd" clip-rule="evenodd" fill="#D3D3D3" stroke="#231F20" stroke-width="0.5" stroke-miterlimit="10" d="
		M581.662,19.334c-0.012,11.402-0.016,22.805-0.045,34.207c-0.003,1.386,0.241,2.544,1.346,3.574
		c1.167,1.089,1.367,2.59,0.158,3.775c-1.069,1.049-1.551,2.273-1.906,3.756c-0.638-1.452-1.392-2.683-2.463-3.811
		c-1.076-1.132-0.897-2.829,0.348-3.799c1.498-1.167,1.548-2.601,1.545-4.209c-0.019-11.152-0.016-22.306-0.02-33.459
		C580.958,19,581.305,19.005,581.662,19.334z"/>
	<path fill-rule="evenodd" clip-rule="evenodd" fill="#D3D3D3" stroke="#231F20" stroke-width="0.5" stroke-miterlimit="10" d="
		M414.658,19.371c-0.004,11.159,0.001,22.318-0.021,33.477c-0.004,1.616,0.077,3.036,1.56,4.206
		c1.236,0.977,1.368,2.612,0.332,3.817c-0.973,1.131-2.101,2.047-1.745,3.921c-0.627-1.672-1.47-2.862-2.643-3.949
		c-1.217-1.128-1.133-2.633,0.147-3.729c1.156-0.989,1.382-2.165,1.378-3.554c-0.029-11.409-0.033-22.817-0.045-34.227
		C413.979,19.006,414.325,19,414.658,19.371z"/>
	<path fill-rule="evenodd" clip-rule="evenodd" fill="#D3D3D3" stroke="#231F20" stroke-width="0.5" stroke-miterlimit="10" d="
		M676.673,19.374c-0.004,11.229,0.003,22.461-0.024,33.69c-0.004,1.547,0.116,2.918,1.474,4.009
		c1.191,0.958,1.439,2.485,0.442,3.565c-1.305,1.413-2.079,2.851-1.999,4.947c-0.084-2.31-1.371-3.713-2.804-5.176
		c-1.122-1.147-0.395-2.566,0.651-3.521c1.035-0.946,1.271-2.052,1.268-3.354c-0.029-11.396-0.035-22.793-0.047-34.189
		C675.989,19.005,676.337,19,676.673,19.374z"/>
	<path fill-rule="evenodd" clip-rule="evenodd" fill="#D3D3D3" stroke="#231F20" stroke-width="0.5" stroke-miterlimit="10" d="
		M700.251,65.287c-0.37-0.007-0.74-0.013-1.111-0.019c0.407-1.617,0.361-2.936-1.173-4.19c-1.341-1.098-1.112-2.82,0.183-3.96
		c1.287-1.131,1.514-2.44,1.509-4.007c-0.034-11.246-0.023-22.492-0.028-33.739c0.334-0.371,0.681-0.365,1.038-0.035
		c-0.011,11.388-0.011,22.775-0.05,34.163c-0.005,1.414,0.359,2.527,1.411,3.548c1.385,1.343,1.315,3.006-0.18,4.109
		C700.319,62.288,700.106,63.65,700.251,65.287z"/>
	<path fill-rule="evenodd" clip-rule="evenodd" fill="#D3D3D3" stroke="#231F20" stroke-width="0.5" stroke-miterlimit="10" d="
		M391.152,19.335c-0.012,11.332-0.009,22.664-0.054,33.996c-0.006,1.502,0.334,2.71,1.47,3.79c1.201,1.144,1.248,2.63,0.046,3.774
		c-1.165,1.109-1.599,2.243-0.964,3.878c-1.016-1.423-1.92-2.656-3.197-3.689c-1.259-1.019-1.194-2.728,0.014-3.764
		c1.635-1.402,1.678-3.089,1.673-4.953c-0.029-10.998-0.021-21.997-0.024-32.997C390.448,19,390.795,19.005,391.152,19.335z"/>
	<path fill-rule="evenodd" clip-rule="evenodd" fill="#D1D1D1" stroke="#231F20" stroke-width="0.5" stroke-miterlimit="10" d="
		M365.71,68.255c0.55,1.989,2.245,3.061,3.621,4.33c14.103,13.012,30.23,23.064,47.065,32.073c2.492,1.333,4.987,2.663,7.482,3.99
		c0.736,0.392,1.507,0.74,1.79,1.627c-0.568,0.25-1.161,0.283-1.684-0.042c-12.213-7.606-25.199-13.93-36.928-22.339
		c-7.253-5.2-14.203-10.756-20.563-17.026c-0.768-0.757-1.61-1.471-1.882-2.593c0.116-0.172,0.235-0.231,0.358-0.179
		c0.125,0.053,0.188,0.106,0.188,0.162C365.342,68.257,365.526,68.256,365.71,68.255z"/>
	<path fill-rule="evenodd" clip-rule="evenodd" fill="#D0D0D0" stroke="#231F20" stroke-width="0.5" stroke-miterlimit="10" d="
		M462.164,19.384c0,11.158,0.009,22.316-0.008,33.475c-0.003,1.614,0.074,3.009,1.603,4.169c1.374,1.042,1.315,2.809,0.15,3.992
		c-1.146,1.166-2.365,2.208-2.983,3.921c0.25-1.682-0.061-2.886-1.193-4.118c-1.01-1.098-1.038-2.832,0.291-3.798
		c1.556-1.13,1.604-2.553,1.602-4.167c-0.018-11.158-0.01-22.316-0.01-33.475c0.122-0.15,0.244-0.2,0.366-0.149
		C462.104,19.284,462.164,19.334,462.164,19.384z"/>
	<path fill-rule="evenodd" clip-rule="evenodd" fill="#D3D3D3" stroke="#231F20" stroke-width="0.5" stroke-miterlimit="10" d="
		M363.534,281.238c-0.012,5.812,0.135,23.719,0.104,29.531c-0.007,1.3,0.223,2.387,1.335,3.294c1.455,1.187,1.61,2.748,0.312,4.133
		c-1.174,1.251-2.7,1.412-4.003,0.201c-1.492-1.386-1.39-3.006,0.084-4.335c1.05-0.946,1.303-2.029,1.296-3.328
		c-0.031-5.812-0.357-23.302-0.37-29.114C362.657,281.33,363.188,280.915,363.534,281.238z"/>
	<path fill-rule="evenodd" clip-rule="evenodd" fill="#D0D0D0" stroke="#231F20" stroke-width="0.5" stroke-miterlimit="10" d="
		M535.19,65.25c-0.185,0.007-0.369,0.014-0.555,0.02c-0.994-1.396-1.665-2.956-3.11-4.116c-1.384-1.112-1.424-3.021,0.026-4.146
		c1.521-1.18,1.577-2.572,1.575-4.177c-0.014-11.148-0.007-22.298-0.008-33.447c0.122-0.15,0.244-0.2,0.366-0.149
		c0.121,0.05,0.183,0.1,0.183,0.15c0,11.212,0.01,22.424-0.009,33.636c-0.003,1.534,0.101,2.874,1.495,3.972
		c1.248,0.981,1.52,2.733,0.424,3.781C533.952,62.328,534.57,63.702,535.19,65.25z"/>
	<path fill-rule="evenodd" clip-rule="evenodd" fill="#D0D0D0" stroke="#231F20" stroke-width="0.5" stroke-miterlimit="10" d="
		M652.673,19.379c0,11.227,0.01,22.453-0.008,33.679c-0.003,1.541,0.15,2.821,1.56,3.931c1.457,1.146,1.395,2.993,0.061,4.16
		c-1.381,1.208-1.686,2.566-1.685,4.187c-0.22,0.125-0.38,0.063-0.487-0.158c0.134-1.573-0.271-2.801-1.54-3.965
		c-1.402-1.285-1.468-3.106,0.135-4.343c1.358-1.048,1.424-2.31,1.423-3.748c-0.009-11.247-0.005-22.495-0.005-33.743
		c0.122-0.147,0.243-0.196,0.364-0.146C652.611,19.281,652.673,19.33,652.673,19.379z"/>
	<path fill-rule="evenodd" clip-rule="evenodd" fill="#D2D2D2" stroke="#231F20" stroke-width="0.5" stroke-miterlimit="10" d="
		M365.158,68.259c-0.182,0.006-0.364,0.011-0.546,0.017c-3.64-2.745-6.196-6.459-8.759-10.111
		c-8.163-11.639-12.875-24.497-13.236-38.817c0.321-0.347,0.663-0.345,1.021-0.06c0.005,13.857,4.687,26.184,12.299,37.548
		C358.671,60.917,361.789,64.69,365.158,68.259z"/>
	<path fill-rule="evenodd" clip-rule="evenodd" fill="#D1D1D1" stroke="#231F20" stroke-width="0.5" stroke-miterlimit="10" d="
		M652.673,71.857c0.001,8.035,0.012,16.069-0.006,24.104c-0.003,1.457,0.193,2.684,1.446,3.744c1.489,1.261,1.509,3.032,0.229,4.414
		c-1.357,1.464-1.413,2.88-0.654,4.531c-0.402,0.437-0.839,0.477-1.312,0.114c0.061-1.781-0.132-3.305-1.778-4.597
		c-1.511-1.187-1.428-3.097,0.012-4.372c1.301-1.152,1.532-2.431,1.527-3.982c-0.024-7.985-0.011-15.972-0.01-23.957
		c0.121-0.133,0.243-0.177,0.364-0.133C652.612,71.768,652.673,71.812,652.673,71.857z"/>
	<path fill-rule="evenodd" clip-rule="evenodd" fill="#D1D1D1" stroke="#231F20" stroke-width="0.5" stroke-miterlimit="10" d="
		M108.62,36.827c-0.938,0.519-1.966,0.427-2.979,0.443c-2.004-0.531-4.159-0.448-6.04-1.481
		c-12.022-2.539-24.15-4.725-35.245-10.397c-2.771-1.417-5.268-3.161-6.759-6.023c0.226-0.367,0.545-0.413,0.92-0.271
		c1.728,3.842,5.384,5.399,8.826,6.881c11.76,5.064,24.271,7.465,36.776,9.822C105.681,35.875,107.206,36.105,108.62,36.827z"/>
	<path fill-rule="evenodd" clip-rule="evenodd" fill="#D1D1D1" stroke="#231F20" stroke-width="0.5" stroke-miterlimit="10" d="
		M282.649,19.367c-1.247,2.627-3.543,4.116-5.995,5.367c-8.817,4.499-18.358,6.666-27.977,8.562
		c-2.828,1.524-6.054,1.419-9.073,2.164c-1.486,0.366-3.032,0.653-4.59,0.732c-0.396,0.021-0.871,0.291-1.022-0.248
		c-0.172-0.614,0.287-0.837,0.824-0.96c1.427-0.328,2.856-0.625,4.324-0.694c12.764-2.353,25.596-4.491,37.331-10.471
		c2.161-1.102,4.649-2.067,5.141-4.981C282.214,18.509,282.491,18.823,282.649,19.367z"/>
	<path fill-rule="evenodd" clip-rule="evenodd" fill="#CCCCCC" stroke="#231F20" stroke-width="0.5" stroke-miterlimit="10" d="
		M201.638,38.287c12.568-3.154,25.302-5.79,36.983-11.739c3.324-1.692,6.152-3.933,7.999-7.255c0.204-0.137,0.383-0.117,0.533,0.084
		c-1.393,3.792-4.494,5.921-7.8,7.726c-6.477,3.538-13.524,5.613-20.582,7.603c-4.005,1.129-8.064,2.071-12.098,3.098
		c-2.715,1.221-5.533,1.938-8.498,1.971C199.016,38.324,200.452,38.654,201.638,38.287z"/>
	<path fill-rule="evenodd" clip-rule="evenodd" fill="#D1D1D1" stroke="#231F20" stroke-width="0.5" stroke-miterlimit="10" d="
		M158.652,46.225c-0.642,0.304-1.096-0.029-1.523-0.451c-2.262-2.768-5.456-4.29-8.376-6.146c-4.337-2.757-8.905-5.161-12.841-8.515
		c-3.67-3.128-6.711-6.672-7.314-11.725c0.119-0.152,0.24-0.204,0.362-0.156c0.124,0.048,0.186,0.097,0.186,0.147
		c1.904,7.808,7.861,12.019,14.142,15.944c3.733,2.334,7.466,4.668,11.186,7.022C156.102,43.377,157.494,44.679,158.652,46.225z"/>
	<path fill-rule="evenodd" clip-rule="evenodd" fill="#D2D2D2" stroke="#231F20" stroke-width="0.5" stroke-miterlimit="10" d="
		M270.178,32.307c-0.178-0.171-0.355-0.343-0.533-0.515c8.496-1.639,16.986-3.302,25.178-6.178c2.996-1.052,5.825-2.445,8.496-4.158
		c0.985-0.633,1.933-1.323,2.283-2.537c0.615-0.492,0.847-0.065,1.047,0.437c-2.088,2.748-4.982,4.383-8.087,5.629
		C289.423,28.655,279.934,31.011,270.178,32.307z"/>
	<path fill-rule="evenodd" clip-rule="evenodd" fill="#020202" stroke="#231F20" stroke-width="0.5" stroke-miterlimit="10" d="
		M343.638,19.288c-0.34,0.02-0.68,0.04-1.021,0.06c-0.728-0.214-1.423-0.502-1.915-1.104c-1.106-1.355-1.13-2.743,0.085-4.02
		c1.137-1.195,2.497-1.327,3.809-0.326c1.388,1.058,1.664,2.483,0.727,3.956C344.945,18.448,344.21,18.816,343.638,19.288z"/>
	<path fill-rule="evenodd" clip-rule="evenodd" fill="#CCCCCC" stroke="#231F20" stroke-width="0.5" stroke-miterlimit="10" d="
		M168.571,46.806c-0.267,0.634-0.716,0.997-1.433,0.958c1.814-4.59,5.631-7.48,9.146-10.577
		c5.518-4.861,10.242-10.162,11.315-17.817c0.127-0.144,0.252-0.188,0.374-0.136c0.12,0.052,0.18,0.103,0.18,0.152
		c-0.362,5.403-2.879,9.816-6.543,13.584c-3.113,3.201-6.47,6.165-9.681,9.273C170.562,43.568,169.286,44.988,168.571,46.806z"/>
	<path fill-rule="evenodd" clip-rule="evenodd" fill="#E8E8E8" stroke="#231F20" stroke-width="0.5" stroke-miterlimit="10" d="
		M239.14,34.29c-1.419,0.405-2.838,0.812-4.258,1.218c0.032,0.174,0.064,0.348,0.097,0.522c4.565-0.912,9.132-1.823,13.698-2.734
		c0.32,0.162,0.64,0.324,0.959,0.486c-5.163,1.463-10.48,2.14-15.772,2.834c-1.678,0.22-3.496-0.935-5.234,0.14
		c-2.288,0.3-4.575,0.6-6.862,0.9c-0.027-0.123-0.054-0.246-0.081-0.368c5.491-1.167,10.981-2.334,16.473-3.501
		C238.486,33.955,238.812,34.122,239.14,34.29z"/>
	<path fill-rule="evenodd" clip-rule="evenodd" fill="#E3E3E3" stroke="#231F20" stroke-width="0.5" stroke-miterlimit="10" d="
		M685.7,114.277c-0.19-0.008-0.381-0.015-0.571-0.022c-0.054-0.493-0.069-0.994-0.169-1.478c-0.312-1.514-0.164-2.807,1.8-2.56
		c1.548,0.195,3.36,0.277,3.071,2.778c-0.119,1.036-0.55,1.273-1.394,1.281C687.525,114.285,686.612,114.277,685.7,114.277z"/>
	<path fill-rule="evenodd" clip-rule="evenodd" fill="#E7E7E7" stroke="#231F20" stroke-width="0.5" stroke-miterlimit="10" d="
		M201.638,38.287c-0.864,0.356-1.729,0.714-2.592,1.071c0.038,0.118,0.076,0.237,0.114,0.356c2.504-0.638,5.008-1.275,7.513-1.912
		c0.151,0.155,0.302,0.31,0.454,0.464c-4.112,1.231-8.249,2.357-12.501,3.005c-0.553-1.061-0.184-1.61,0.935-1.914
		c1.722-0.47,3.417-1.037,5.124-1.562C201.003,37.958,201.32,38.123,201.638,38.287z"/>
	<path fill-rule="evenodd" clip-rule="evenodd" fill="#242424" stroke="#231F20" stroke-width="0.5" stroke-miterlimit="10" d="
		M247.153,19.376c-0.178-0.027-0.355-0.056-0.533-0.084c-0.06-0.056-0.114-0.122-0.181-0.168c-1.512-1.025-2.414-2.318-1.493-4.162
		c0.705-1.411,1.947-2.056,3.494-1.59c1.377,0.414,2.271,1.43,2.188,2.932C250.513,18.427,249.11,19.253,247.153,19.376z"/>
	<path fill-rule="evenodd" clip-rule="evenodd" fill="#E8E8E8" stroke="#231F20" stroke-width="0.5" stroke-miterlimit="10" d="
		M654.706,113.118c-0.219,0.395-0.438,0.789-0.658,1.184c-1.057-0.021-2.124,0.046-3.167-0.083
		c-1.381-0.169-1.684-0.866-0.704-1.955c0.02-0.211,0.657-0.333,0.083-0.634c-0.353-0.186-0.975-0.207-0.615-0.893l-0.025,0.04
		c1.548-0.126,2.869-1.423,4.547-0.88C654.347,110.97,654.526,112.044,654.706,113.118z"/>
	<path fill-rule="evenodd" clip-rule="evenodd" fill="#2A2A2A" stroke="#231F20" stroke-width="0.5" stroke-miterlimit="10" d="
		M700.668,19.336c-0.346,0.012-0.691,0.023-1.038,0.035c-0.562-0.324-1.227-0.548-1.669-0.992c-1.319-1.326-1.319-2.831-0.071-4.16
		c1.264-1.345,2.806-1.401,4.161-0.143c1.34,1.243,1.439,2.745,0.228,4.161C701.87,18.714,701.212,18.976,700.668,19.336z"/>
	<path fill-rule="evenodd" clip-rule="evenodd" fill="#303030" stroke="#231F20" stroke-width="0.5" stroke-miterlimit="10" d="
		M736.177,19.368c-0.348-0.004-0.696-0.009-1.044-0.013c-1.032-0.417-1.906-1.028-2.26-2.138c-0.497-1.561,0.067-2.784,1.422-3.581
		c1.415-0.831,2.751-0.489,3.763,0.726c1.028,1.234,1.003,2.629-0.03,3.838C737.575,18.729,736.804,18.987,736.177,19.368z"/>
	<path fill-rule="evenodd" clip-rule="evenodd" fill="#2A2A2A" stroke="#231F20" stroke-width="0.5" stroke-miterlimit="10" d="
		M294.648,19.36c-0.348-0.155-0.696-0.311-1.044-0.466c-0.898-0.808-1.603-1.739-1.373-3.021c0.261-1.454,1.175-2.408,2.645-2.593
		c1.611-0.203,2.747,0.624,3.234,2.127c0.463,1.427-0.096,2.585-1.316,3.444C296.137,19.313,295.384,19.283,294.648,19.36z"/>
	<path fill-rule="evenodd" clip-rule="evenodd" fill="#2F2F2F" stroke="#231F20" stroke-width="0.5" stroke-miterlimit="10" d="
		M259.155,19.374c-0.308-0.09-0.616-0.179-0.923-0.269c-0.782-0.624-1.548-1.252-1.673-2.354c-0.184-1.625,0.497-2.805,1.991-3.329
		c1.633-0.573,2.945,0.047,3.715,1.597c0.746,1.502,0.204,2.727-1.001,3.729C260.658,19.252,259.903,19.316,259.155,19.374z"/>
	<path fill-rule="evenodd" clip-rule="evenodd" fill="#2C2C2C" stroke="#231F20" stroke-width="0.5" stroke-miterlimit="10" d="
		M676.673,19.374c-0.347-0.01-0.693-0.02-1.039-0.029c-0.553-0.35-1.227-0.594-1.632-1.069c-1.197-1.405-1.154-2.938,0.172-4.194
		c1.338-1.268,2.908-1.22,4.186,0.102c1.271,1.313,1.236,2.84-0.016,4.188C677.92,18.828,677.237,19.045,676.673,19.374z"/>
	<path fill-rule="evenodd" clip-rule="evenodd" fill="#292929" stroke="#231F20" stroke-width="0.5" stroke-miterlimit="10" d="
		M318.146,19.342c-0.334-0.199-0.669-0.397-1.004-0.596c-0.906-0.979-1.38-2.127-0.941-3.421c0.477-1.401,1.558-2.156,3.059-2.069
		c1.52,0.089,2.464,1.022,2.753,2.457c0.295,1.462-0.311,2.653-1.689,3.255C319.668,19.254,318.876,19.227,318.146,19.342z"/>
	<path fill-rule="evenodd" clip-rule="evenodd" fill="#292929" stroke="#231F20" stroke-width="0.5" stroke-miterlimit="10" d="
		M629.168,19.358c-0.347,0-0.692,0.001-1.038,0.001c-0.785-0.282-1.537-0.627-1.992-1.374c-0.896-1.472-0.755-2.893,0.528-4.007
		c1.298-1.127,2.778-1.066,4.013,0.123c1.233,1.188,1.334,2.652,0.282,4.009C630.535,18.659,629.775,18.95,629.168,19.358z"/>
	<path fill-rule="evenodd" clip-rule="evenodd" fill="#292929" stroke="#231F20" stroke-width="0.5" stroke-miterlimit="10" d="
		M367.154,19.359c-0.347,0-0.692,0-1.039,0c-0.553-0.348-1.224-0.592-1.635-1.062c-1.213-1.393-1.186-2.92,0.129-4.19
		c1.321-1.275,2.886-1.265,4.18,0.051c1.282,1.305,1.255,2.832,0.03,4.194C368.404,18.813,367.717,19.03,367.154,19.359z"/>
	<path fill-rule="evenodd" clip-rule="evenodd" fill="#272727" stroke="#231F20" stroke-width="0.5" stroke-miterlimit="10" d="
		M581.662,19.334c-0.346,0.012-0.691,0.023-1.037,0.035c-1.171-0.326-2.154-0.934-2.475-2.162c-0.422-1.618,0.062-2.975,1.632-3.703
		c1.354-0.629,2.618-0.27,3.527,0.887c1.062,1.351,0.947,2.763-0.212,4.012C582.721,18.808,582.146,19.029,581.662,19.334z"/>
	<path fill-rule="evenodd" clip-rule="evenodd" fill="#292929" stroke="#231F20" stroke-width="0.5" stroke-miterlimit="10" d="
		M391.152,19.335c-0.346,0.012-0.691,0.023-1.037,0.035c-1.071-0.317-2.028-0.858-2.397-1.947c-0.534-1.578-0.153-2.958,1.375-3.805
		c1.438-0.797,2.745-0.412,3.745,0.792c1.032,1.243,0.971,2.602-0.086,3.808C392.336,18.693,391.692,18.968,391.152,19.335z"/>
	<path fill-rule="evenodd" clip-rule="evenodd" fill="#303030" stroke="#231F20" stroke-width="0.5" stroke-miterlimit="10" d="
		M510.161,19.348c-0.348,0.009-0.694,0.019-1.042,0.028c-0.626-0.384-1.402-0.642-1.848-1.176c-1.096-1.312-1.073-2.773,0.127-4.017
		c1.198-1.24,2.661-1.357,4.009-0.271c1.32,1.064,1.588,2.453,0.694,3.972C511.658,18.637,510.928,19.018,510.161,19.348z"/>
	<path fill-rule="evenodd" clip-rule="evenodd" fill="#303030" stroke="#231F20" stroke-width="0.5" stroke-miterlimit="10" d="
		M486.164,19.376c-0.348-0.01-0.694-0.02-1.042-0.029c-1.138-0.436-2.048-1.138-2.334-2.367c-0.367-1.583,0.303-2.771,1.712-3.463
		c1.36-0.666,2.618-0.294,3.549,0.845c1.017,1.244,0.998,2.632-0.035,3.84C487.56,18.733,486.79,18.994,486.164,19.376z"/>
	<path fill-rule="evenodd" clip-rule="evenodd" fill="#282828" stroke="#231F20" stroke-width="0.5" stroke-miterlimit="10" d="
		M414.658,19.371c-0.346-0.013-0.691-0.024-1.036-0.037c-0.859-0.478-1.752-0.889-2.11-1.944c-0.52-1.532-0.158-2.783,1.184-3.643
		c1.465-0.937,2.871-0.683,3.935,0.67c0.982,1.249,0.892,2.604-0.091,3.845C416.07,18.853,415.396,19.187,414.658,19.371z"/>
	<path fill-rule="evenodd" clip-rule="evenodd" fill="#292929" stroke="#231F20" stroke-width="0.5" stroke-miterlimit="10" d="
		M141.145,19.344c-0.348,0.003-0.696,0.006-1.044,0.009c-1.557-0.477-2.612-1.361-2.596-3.142c0.013-1.416,0.767-2.353,2.022-2.804
		c1.409-0.506,2.607,0.01,3.454,1.195c0.807,1.13,0.78,2.358-0.091,3.422C142.441,18.574,141.734,18.912,141.145,19.344z"/>
	<path fill-rule="evenodd" clip-rule="evenodd" fill="#292929" stroke="#231F20" stroke-width="0.5" stroke-miterlimit="10" d="
		M129.146,19.379c-0.183,0.003-0.365,0.006-0.548,0.009c-0.831-0.127-1.632-0.365-2.186-1.03c-1.174-1.407-1.211-2.905,0.06-4.217
		c1.197-1.234,2.691-1.298,4.003-0.195c1.4,1.178,1.561,2.702,0.455,4.17C130.513,18.67,129.751,18.965,129.146,19.379z"/>
	<path fill-rule="evenodd" clip-rule="evenodd" fill="#292929" stroke="#231F20" stroke-width="0.5" stroke-miterlimit="10" d="
		M117.627,19.284c-0.344,0.03-0.688,0.061-1.032,0.09c-1.02-0.156-1.909-0.561-2.459-1.47c-0.836-1.383-0.687-2.738,0.473-3.821
		c1.252-1.171,2.71-1.216,4.015-0.081c1.202,1.045,1.43,2.417,0.595,3.784C118.853,18.385,118.167,18.791,117.627,19.284z"/>
	<path fill-rule="evenodd" clip-rule="evenodd" fill="#282828" stroke="#231F20" stroke-width="0.5" stroke-miterlimit="10" d="
		M164.648,19.364c-0.184,0.011-0.369,0.021-0.553,0.032c-0.532-0.229-1.129-0.37-1.584-0.704c-1.454-1.069-1.657-3.067-0.514-4.399
		c1.159-1.35,3.187-1.415,4.425-0.144c1.207,1.24,1.127,3.26-0.243,4.422C165.752,18.933,165.164,19.105,164.648,19.364z"/>
	<path fill-rule="evenodd" clip-rule="evenodd" fill="#2C2C2C" stroke="#231F20" stroke-width="0.5" stroke-miterlimit="10" d="
		M176.649,19.359c-0.349-0.004-0.698-0.009-1.047-0.013c-0.55-0.351-1.224-0.597-1.627-1.072c-1.195-1.405-1.153-2.937,0.172-4.192
		c1.336-1.268,2.906-1.221,4.184,0.099c1.271,1.312,1.239,2.837-0.009,4.186C177.899,18.822,177.214,19.035,176.649,19.359z"/>
	<path fill-rule="evenodd" clip-rule="evenodd" fill="#2A2A2A" stroke="#231F20" stroke-width="0.5" stroke-miterlimit="10" d="
		M46.553,19.148c-0.319,0.072-0.637,0.145-0.956,0.216c-1.431-0.054-2.569-0.59-3.159-1.975c-0.607-1.427-0.158-2.609,0.996-3.508
		c1.188-0.924,2.464-0.903,3.645,0.037c1.174,0.937,1.5,2.198,0.893,3.546C47.681,18.108,47.037,18.591,46.553,19.148z"/>
	<path fill-rule="evenodd" clip-rule="evenodd" fill="#303030" stroke="#231F20" stroke-width="0.5" stroke-miterlimit="10" d="
		M235.651,19.38c-0.341-0.036-0.683-0.073-1.025-0.109c-0.377-0.318-0.812-0.591-1.121-0.965c-1.279-1.549-1.075-3.491,0.52-4.529
		c1.577-1.026,3.026-0.687,4.147,0.757c1.127,1.453,0.606,3.438-1.114,4.416C236.641,19.186,236.123,19.242,235.651,19.38z"/>
	<path fill-rule="evenodd" clip-rule="evenodd" fill="#272727" stroke="#231F20" stroke-width="0.5" stroke-miterlimit="10" d="
		M82.1,19.224c-0.334,0.048-0.668,0.097-1.002,0.146c-1.752-0.205-2.945-1.018-3.091-2.912c-0.107-1.395,0.537-2.41,1.777-2.969
		c1.266-0.571,2.447-0.26,3.371,0.743c0.925,1.004,1.15,2.218,0.449,3.415C83.246,18.256,82.61,18.704,82.1,19.224z"/>
	<path fill-rule="evenodd" clip-rule="evenodd" fill="#2F2F2F" stroke="#231F20" stroke-width="0.5" stroke-miterlimit="10" d="
		M11.146,18.914c-0.349,0.148-0.699,0.296-1.048,0.443c-0.932-0.016-1.843-0.131-2.548-0.814c-1.25-1.213-1.461-2.624-0.446-4.035
		c0.935-1.299,2.287-1.706,3.742-0.932c1.497,0.798,2.14,2.098,1.472,3.759C12.082,17.923,11.546,18.391,11.146,18.914z"/>
	<path fill-rule="evenodd" clip-rule="evenodd" fill="#2A2A2A" stroke="#231F20" stroke-width="0.5" stroke-miterlimit="10" d="
		M200.148,19.378c-0.345-0.022-0.689-0.045-1.034-0.067c-0.27-0.188-0.55-0.363-0.809-0.565c-1.258-0.98-1.682-2.249-1.021-3.707
		c0.553-1.221,1.588-1.911,2.972-1.782c1.486,0.14,2.439,1.073,2.727,2.474c0.322,1.572-0.489,2.684-1.892,3.364
		C200.799,19.236,200.464,19.287,200.148,19.378z"/>
	<path fill-rule="evenodd" clip-rule="evenodd" fill="#2A2A2A" stroke="#231F20" stroke-width="0.5" stroke-miterlimit="10" d="
		M70.125,19.282c-0.176,0.033-0.353,0.066-0.529,0.1c-0.915-0.059-1.833-0.153-2.526-0.834c-1.227-1.204-1.455-2.628-0.451-4.011
		c1.074-1.48,2.602-1.803,4.125-0.736c1.379,0.966,1.774,2.392,0.909,3.913C71.305,18.328,70.645,18.764,70.125,19.282z"/>
	<path fill-rule="evenodd" clip-rule="evenodd" fill="#262626" stroke="#231F20" stroke-width="0.5" stroke-miterlimit="10" d="
		M23.138,18.852c-0.346,0.166-0.691,0.332-1.037,0.497c-1.512,0.021-2.869-0.398-3.418-1.918c-0.472-1.306-0.325-2.632,0.938-3.559
		c1.121-0.822,2.304-0.893,3.457-0.106c1.244,0.849,1.637,2.075,1.155,3.474C24.029,17.833,23.512,18.318,23.138,18.852z"/>
	<path fill-rule="evenodd" clip-rule="evenodd" fill="#262626" stroke="#231F20" stroke-width="0.5" stroke-miterlimit="10" d="
		M724.177,19.385c-0.183,0.001-0.365,0.003-0.547,0.004c-0.594-0.285-1.306-0.446-1.758-0.878c-1.344-1.283-1.422-2.789-0.272-4.231
		c1.108-1.389,3.232-1.439,4.395-0.089c1.192,1.385,1.181,2.898-0.104,4.233C725.455,18.876,724.756,19.073,724.177,19.385z"/>
	<path fill-rule="evenodd" clip-rule="evenodd" fill="#292929" stroke="#231F20" stroke-width="0.5" stroke-miterlimit="10" d="
		M438.658,19.359c-0.347,0-0.692,0-1.038,0c-0.717-0.239-1.396-0.569-1.846-1.187c-1.012-1.388-1.001-2.822,0.229-4.025
		c1.318-1.289,2.855-1.297,4.193-0.028c1.25,1.185,1.332,2.651,0.269,4.002C440.034,18.668,439.271,18.954,438.658,19.359z"/>
	<path fill-rule="evenodd" clip-rule="evenodd" fill="#292929" stroke="#231F20" stroke-width="0.5" stroke-miterlimit="10" d="
		M188.153,19.386c-0.185-0.005-0.369-0.011-0.554-0.017c-0.615-0.396-1.388-0.67-1.815-1.214c-1.133-1.444-1.011-2.979,0.382-4.17
		c1.403-1.2,2.961-1.062,4.178,0.301c1.225,1.373,1.084,2.869-0.203,4.19C189.611,19.02,188.903,19.274,188.153,19.386z"/>
	<path fill-rule="evenodd" clip-rule="evenodd" fill="#292929" stroke="#231F20" stroke-width="0.5" stroke-miterlimit="10" d="
		M557.664,19.358c-0.347,0.001-0.692,0.001-1.039,0.001c-0.555-0.346-1.228-0.588-1.644-1.057c-1.229-1.385-1.21-2.903,0.11-4.182
		c1.324-1.281,2.885-1.272,4.188,0.029c1.298,1.298,1.288,2.821,0.045,4.188C558.903,18.799,558.225,19.025,557.664,19.358z"/>
	<path fill-rule="evenodd" clip-rule="evenodd" fill="#262626" stroke="#231F20" stroke-width="0.5" stroke-miterlimit="10" d="
		M223.65,19.385c-0.33-0.062-0.661-0.122-0.992-0.184c-0.509-0.521-1.209-0.958-1.491-1.582c-0.736-1.632-0.392-3.1,1.262-3.997
		c1.548-0.839,2.978-0.422,3.86,1.008c0.921,1.494,0.729,3.03-0.813,4.104C224.965,19.091,224.264,19.176,223.65,19.385z"/>
	<path fill-rule="evenodd" clip-rule="evenodd" fill="#252525" stroke="#231F20" stroke-width="0.5" stroke-miterlimit="10" d="
		M105.638,19.327c-0.181,0.02-0.362,0.038-0.543,0.058c-2.109-0.229-3.497-1.26-3.319-3.517c0.104-1.334,1.05-2.264,2.402-2.562
		c1.394-0.309,2.498,0.307,3.17,1.472c0.675,1.169,0.604,2.416-0.351,3.463C106.611,18.663,106.095,18.968,105.638,19.327z"/>
	<path fill-rule="evenodd" clip-rule="evenodd" fill="#292929" stroke="#231F20" stroke-width="0.5" stroke-miterlimit="10" d="
		M306.649,19.356c-0.349-0.146-0.698-0.291-1.047-0.437c-1.136-0.887-1.807-1.998-1.353-3.461c0.438-1.406,1.452-2.222,2.963-2.206
		c1.399,0.014,2.394,0.784,2.811,2.073c0.454,1.403,0,2.608-1.234,3.487C308.14,19.277,307.393,19.293,306.649,19.356z"/>
	<path fill-rule="evenodd" clip-rule="evenodd" fill="#252525" stroke="#231F20" stroke-width="0.5" stroke-miterlimit="10" d="
		M605.168,19.368c-0.346-0.012-0.69-0.024-1.036-0.036c-1.301-0.568-2.331-1.456-2.383-2.932c-0.051-1.464,0.765-2.539,2.178-3.013
		c1.356-0.455,2.492,0.039,3.284,1.154c0.868,1.223,0.787,2.506-0.155,3.679C606.577,18.817,605.922,19.19,605.168,19.368z"/>
	<path fill-rule="evenodd" clip-rule="evenodd" fill="#262626" stroke="#231F20" stroke-width="0.5" stroke-miterlimit="10" d="
		M271.153,19.359c-0.323-0.062-0.647-0.125-0.97-0.188c-0.564-0.582-1.362-0.987-1.558-1.854c-0.388-1.714-0.015-3.173,1.751-3.855
		c1.619-0.625,2.997-0.054,3.722,1.478c0.769,1.624,0.347,3.082-1.299,3.983C272.316,19.188,271.706,19.22,271.153,19.359z"/>
	<path fill-rule="evenodd" clip-rule="evenodd" fill="#282828" stroke="#231F20" stroke-width="0.5" stroke-miterlimit="10" d="
		M58.518,19.097c-0.307,0.09-0.614,0.181-0.92,0.271c-0.747-0.053-1.5-0.116-2.118-0.596c-1.455-1.13-1.876-2.562-0.844-4.128
		c0.932-1.415,2.332-1.877,3.888-1.023c1.632,0.895,2.066,2.326,1.287,4.001C59.546,18.191,58.958,18.61,58.518,19.097z"/>
	<path fill-rule="evenodd" clip-rule="evenodd" fill="#262626" stroke="#231F20" stroke-width="0.5" stroke-miterlimit="10" d="
		M35.128,18.792c-0.342,0.189-0.685,0.378-1.027,0.567c-0.572-0.068-1.179-0.038-1.709-0.224c-1.708-0.6-2.539-2.417-1.815-4.013
		c0.708-1.561,2.001-2.284,3.638-1.725c1.868,0.638,2.447,2.127,1.877,3.981C35.933,17.9,35.458,18.324,35.128,18.792z"/>
	<path fill-rule="evenodd" clip-rule="evenodd" fill="#262626" stroke="#231F20" stroke-width="0.5" stroke-miterlimit="10" d="
		M533.668,19.384c-0.183,0-0.366-0.001-0.549-0.001c-0.589-0.29-1.267-0.476-1.75-0.89c-1.347-1.154-1.374-3.233-0.062-4.407
		c1.405-1.259,2.945-1.22,4.202,0.134c1.243,1.34,1.184,2.891-0.124,4.214C534.944,18.88,534.247,19.075,533.668,19.384z"/>
	<path fill-rule="evenodd" clip-rule="evenodd" fill="#808080" stroke="#231F20" stroke-width="0.5" stroke-miterlimit="10" d="
		M652.113,65.177c0.162,0.053,0.325,0.104,0.487,0.157c1.952,1.112,1.03,2.86,0.976,4.417c-1.2,1.188-2.146,0.792-2.954-0.473
		c-0.306-0.57-1.592-0.505-1.26-1.271c0.461-1.065,1.96-0.683,2.896-1.522c-0.627-0.952-2.032-0.507-2.783-1.581
		C650.45,65.004,651.281,65.091,652.113,65.177z"/>
	<path fill-rule="evenodd" clip-rule="evenodd" fill="#262626" stroke="#231F20" stroke-width="0.5" stroke-miterlimit="10" d="
		M282.649,19.367c-0.346-0.177-0.691-0.354-1.038-0.529c-0.52-0.536-1.024-1.078-1.17-1.854c-0.323-1.716,0.354-2.964,1.933-3.562
		c1.52-0.576,2.863,0.016,3.575,1.402c0.75,1.459,0.49,2.884-0.941,3.942C284.293,19.293,283.467,19.292,282.649,19.367z"/>
	<path fill-rule="evenodd" clip-rule="evenodd" fill="#202020" stroke="#231F20" stroke-width="0.5" stroke-miterlimit="10" d="
		M153.135,19.306c-0.345,0.02-0.69,0.039-1.036,0.058c-0.735-0.192-1.421-0.495-1.913-1.09c-1.11-1.344-1.163-2.762,0.041-4.025
		c1.287-1.351,2.79-1.426,4.178-0.136c1.286,1.195,1.351,2.623,0.293,3.997C154.312,18.613,153.664,18.914,153.135,19.306z"/>
	<path fill-rule="evenodd" clip-rule="evenodd" fill="#202020" stroke="#231F20" stroke-width="0.5" stroke-miterlimit="10" d="
		M94.056,19.146c-0.319,0.076-0.638,0.152-0.957,0.229c-0.842-0.089-1.638-0.285-2.26-0.921c-1.233-1.261-1.385-2.672-0.301-4.027
		c1.073-1.343,2.5-1.651,3.975-0.617c1.432,1.005,1.753,2.403,0.929,3.935C95.143,18.299,94.527,18.684,94.056,19.146z"/>
	<path fill-rule="evenodd" clip-rule="evenodd" fill="#272727" stroke="#231F20" stroke-width="0.5" stroke-miterlimit="10" d="
		M462.164,19.384c-0.183,0-0.366-0.001-0.549-0.001c-1.071-0.321-2.059-0.827-2.432-1.938c-0.533-1.585-0.212-2.984,1.367-3.831
		c1.46-0.783,2.778-0.438,3.74,0.852c1.043,1.399,0.865,2.834-0.385,4.021C463.451,18.92,462.752,19.093,462.164,19.384z"/>
	<path fill-rule="evenodd" clip-rule="evenodd" fill="#202020" stroke="#231F20" stroke-width="0.5" stroke-miterlimit="10" d="
		M652.673,19.379c-0.183,0-0.364-0.001-0.547-0.001c-0.451-0.202-0.953-0.334-1.345-0.618c-1.191-0.863-1.703-2.021-1.179-3.466
		c0.47-1.294,1.438-2.039,2.82-2.029c1.375,0.01,2.361,0.745,2.81,2.048c0.493,1.435,0.013,2.612-1.208,3.462
		C653.626,19.052,653.126,19.182,652.673,19.379z"/>
	<path fill-rule="evenodd" clip-rule="evenodd" fill="#272727" stroke="#231F20" stroke-width="0.5" stroke-miterlimit="10" d="
		M212.146,19.361c-0.346-0.009-0.691-0.018-1.037-0.025c-0.571-0.474-1.322-0.84-1.678-1.44c-0.859-1.448-0.728-2.919,0.671-3.996
		c1.388-1.069,2.837-0.947,4.007,0.365c1.161,1.303,1.091,2.722-0.022,4.059C213.589,18.921,212.899,19.212,212.146,19.361z"/>
	<path fill-rule="evenodd" clip-rule="evenodd" fill="#7D7D7D" stroke="#231F20" stroke-width="0.5" stroke-miterlimit="10" d="
		M729.115,65.129c0.363,0.161,0.726,0.322,1.088,0.482c1.083,0.276,1.978,0.642,0.429,1.584c-0.557,0.339-1.228,0.488-2.192,0.856
		c1.189,0.164,2.06,0.284,2.929,0.413c0.006,0.001,0.014,0.14-0.018,0.194c-0.039,0.068-0.114,0.115-0.175,0.171
		c-0.91,0.899-1.703,2.606-3.062,0.448c-0.289-0.58-1.606-0.545-1.247-1.252c0.542-1.069,2.028-0.878,3.086-1.605
		c-1.01-0.429-1.966-0.834-3.005-1.274C727.768,64.478,728.43,65.347,729.115,65.129z"/>
	<path fill-rule="evenodd" clip-rule="evenodd" fill="#ECECEC" stroke="#231F20" stroke-width="0.5" stroke-miterlimit="10" d="
		M507.627,156.799c-0.883-0.016-1.751,0.047-2.55,0.48c-0.845-0.37-3.01,0.722-1.949-1.759c1.06-1.86,1.676-1.982,4.219-0.829
		C508.004,155.319,508.171,156.011,507.627,156.799z"/>
	<path fill-rule="evenodd" clip-rule="evenodd" fill="#EAEAEA" stroke="#231F20" stroke-width="0.5" stroke-miterlimit="10" d="
		M164.124,65.269c0.214,0.003,0.428,0.006,0.644,0.01c0.679,0.251,1.592,0.335,1.325,1.407c-0.241,0.968-1.03,0.995-1.79,0.756
		c-0.805-0.253-2.171,0.143-2.25-1.03C161.966,65.136,163.284,65.417,164.124,65.269z"/>
	<path fill-rule="evenodd" clip-rule="evenodd" fill="#DEDEDE" stroke="#231F20" stroke-width="0.5" stroke-miterlimit="10" d="
		M728.114,69.279c1.13,0.598,2.021-0.432,3.062-0.449c0.156,0.312,0.312,0.623,0.468,0.935c0.355,0.643,0.478,1.465-0.303,1.642
		c-1.264,0.287-2.64,0.302-3.897-0.01c-0.757-0.188-0.655-1.01-0.255-1.644C727.497,69.595,727.806,69.437,728.114,69.279z"/>
	<path fill-rule="evenodd" clip-rule="evenodd" fill="#C0C0C0" stroke="#231F20" stroke-width="0.5" stroke-miterlimit="10" d="
		M507.245,155.585c-1.36-0.794-2.728-1.145-4.117-0.064c-1.587-1.623-0.76-2.359,1.01-2.751c0.62,0.567,1.286-0.136,1.92,0.071
		C507.27,153.404,509.043,153.722,507.245,155.585z"/>
	<path fill-rule="evenodd" clip-rule="evenodd" fill="#F4F4F4" stroke="#231F20" stroke-width="0.5" stroke-miterlimit="10" d="
		M672.646,156.792c-1.82-0.18-3.722,0.351-5.453-0.619c-0.29-0.882,0.383-1.3,0.871-1.809c1.535-0.23,3.168-0.808,4.088,1.149
		C672.317,155.94,672.482,156.367,672.646,156.792z"/>
	<path fill-rule="evenodd" clip-rule="evenodd" fill="#E4E4E4" stroke="#231F20" stroke-width="0.5" stroke-miterlimit="10" d="
		M108.62,36.827c-1.533-0.197-3.072-0.369-4.5-1.027c0.157-0.171,0.313-0.343,0.469-0.514c3.685,0.838,7.37,1.677,11.055,2.516
		C113.177,38.15,110.931,37.301,108.62,36.827z"/>
	<path fill-rule="evenodd" clip-rule="evenodd" fill="#969696" stroke="#231F20" stroke-width="0.5" stroke-miterlimit="10" d="
		M166.689,77.77c-0.206,0.035-0.411,0.069-0.616,0.104c-1.312,0-2.624,0-4.817,0c3.359-1.414,1.719-2.037,0.345-2.804
		c1.781,0.025,3.521-1.271,4.94,0.569c-0.357,0.556-0.602,1.104,0.104,1.589C166.661,77.41,166.674,77.589,166.689,77.77z"/>
	<path fill-rule="evenodd" clip-rule="evenodd" fill="#C1C1C1" stroke="#231F20" stroke-width="0.5" stroke-miterlimit="10" d="
		M672.152,155.514c-1.616-1.159-3.119-0.596-4.6,0.303c-0.856-0.601-1.505-1.359-0.996-2.438c0.631-1.341,1.822-1.42,3.102-1.087
		l-0.022-0.018c0.056,0.971,0.607,1.436,1.541,1.519C672.331,153.894,672.403,154.614,672.152,155.514z"/>
	<path fill-rule="evenodd" clip-rule="evenodd" fill="#DFDFDF" stroke="#231F20" stroke-width="0.5" stroke-miterlimit="10" d="
		M650.622,69.279c0.985,0.157,1.971,0.315,2.955,0.473c0.187,0.004,0.374,0.008,0.562,0.013c0.355,0.642,0.478,1.465-0.303,1.642
		c-1.264,0.287-2.64,0.302-3.898-0.01c-0.756-0.188-0.654-1.01-0.253-1.644C649.998,69.594,650.31,69.436,650.622,69.279z"/>
	<path fill-rule="evenodd" clip-rule="evenodd" fill="#6A6A6A" stroke="#231F20" stroke-width="0.5" stroke-miterlimit="10" d="
		M505.735,153.363c-0.546-0.16-1.221,0.025-1.598-0.593c0.415-0.223,1.812-0.059,0.469-0.999c-0.508-0.355-1.257-0.366-1.896-0.533
		c1.156-1.058,2.283,0.215,3.429,0.043c0.443,0.456,1.293,0.253,1.577,0.969c-0.077,0.12-0.114,0.252-0.112,0.395
		C507.196,153.444,506.422,153.29,505.735,153.363z"/>
	<path fill-rule="evenodd" clip-rule="evenodd" fill="#DEDEDE" stroke="#231F20" stroke-width="0.5" stroke-miterlimit="10" d="
		M166.646,77.229c-0.082-0.001-0.166,0.008-0.247-0.004c-0.806-0.123-2.194,0.44-2.09-0.942c0.106-1.401,1.455-0.462,2.232-0.643
		C166.577,76.169,166.611,76.699,166.646,77.229z"/>
	<path fill-rule="evenodd" clip-rule="evenodd" fill="#434343" stroke="#231F20" stroke-width="0.5" stroke-miterlimit="10" d="
		M727.188,69.752c-0.205,2.004,1.322,1.453,2.345,1.542c1.092,0.096,2.277,0.174,2.11-1.53c0.997,1.149,0.926,1.879-0.774,1.971
		c-0.73,0.04-1.461,0.085-2.191,0.128c-0.183-0.002-0.365-0.004-0.547-0.006C726.689,71.661,725.86,71.189,727.188,69.752z"/>
	<path fill-rule="evenodd" clip-rule="evenodd" fill="#363636" stroke="#231F20" stroke-width="0.5" stroke-miterlimit="10" d="
		M161.331,72.04c1.23,1.712,3.652,1.771,5.143,0.155c-0.188,1.762-0.186,1.726-3.798,1.549
		C161.466,73.685,160.681,73.513,161.331,72.04z"/>
	<path fill-rule="evenodd" clip-rule="evenodd" fill="#535353" stroke="#231F20" stroke-width="0.5" stroke-miterlimit="10" d="
		M649.645,110.737c0.929,1.208,2.315,0.492,3.702,0.896c-1.017,1.019-2.182,0.458-3.17,0.63
		C650.363,111.627,648.884,111.574,649.645,110.737z"/>
	<path fill-rule="evenodd" clip-rule="evenodd" fill="#434343" stroke="#231F20" stroke-width="0.5" stroke-miterlimit="10" d="
		M649.686,69.752c-0.196,1.47,0.718,1.707,1.83,1.537c1.045-0.159,2.743,0.674,2.624-1.525c1.619,2.175-0.333,1.848-1.467,2.093
		c-0.183,0-0.364-0.001-0.546-0.001c-0.735-0.048-1.516,0.046-2.194-0.174C648.673,71.274,648.908,70.509,649.686,69.752z"/>
	<path fill-rule="evenodd" clip-rule="evenodd" fill="#6E6E6E" stroke="#231F20" stroke-width="0.5" stroke-miterlimit="10" d="
		M654.166,109.897c-1.538,0.177-2.939,1.061-4.547,0.88c0.524-1.212,2.681-0.188,2.758-2.013c0.437-0.038,0.873-0.076,1.311-0.114
		C654.306,108.889,654.837,109.163,654.166,109.897z"/>
	<path fill-rule="evenodd" clip-rule="evenodd" fill="#4A4A4A" stroke="#231F20" stroke-width="0.5" stroke-miterlimit="10" d="
		M392.698,66.75c-0.046,0.657-0.092,1.314-0.138,1.971c-1.538,0-3.075,0-4.613,0C389.497,67.88,391.777,69.074,392.698,66.75z"/>
	<path fill-rule="evenodd" clip-rule="evenodd" fill="#E4E4E4" stroke="#231F20" stroke-width="0.5" stroke-miterlimit="10" d="
		M99.601,35.789c2.05,0.341,4.099,0.69,6.039,1.481c-2.069,0.035-4.07-0.339-6.022-1.007C99.616,36.105,99.61,35.947,99.601,35.789z
		"/>
	<path fill-rule="evenodd" clip-rule="evenodd" fill="#F9F9F9" stroke="#231F20" stroke-width="0.5" stroke-miterlimit="10" d="
		M669.658,152.292c-1.151,0.901-3.097,1.33-2.1,3.521c-0.126,0.125-0.246,0.244-0.365,0.363
		c-7.832,11.998-20.082,17.909-32.538,23.475c-14.224,6.355-29.04,11.303-43.101,18.055c-8.766,4.209-17.055,9.076-23.604,16.474
		c-1.788,2.02-2.94,4.405-4.299,6.947c-0.136-4.146,2.95-13.158,5.862-18.443c7.576-13.749,19.035-23.629,31.788-32.239
		c15.022-10.143,31.177-18.27,47.309-26.437c5.572-2.821,11.049-5.832,16.584-8.728c2.476-1.295,2.859-1.09,3.612,1.595
		c0.66,2.352,1.433,4.648-0.979,6.611c-0.856,0.696-0.854,2.053-0.062,2.721c1.634,1.378,1.713,3.04,1.534,4.902
		C669.262,151.487,669.53,151.896,669.658,152.292z"/>
	<path fill-rule="evenodd" clip-rule="evenodd" fill="#F9F9F9" stroke="#231F20" stroke-width="0.5" stroke-miterlimit="10" d="
		M505.735,153.363c0.623-0.239,1.246-0.479,1.868-0.719c0.84,1.332,2.255,1.957,3.504,2.749
		c9.446,5.997,18.411,12.662,26.299,20.585c12.311,12.367,21.2,26.689,23.586,44.392c0.183,1.361,0.21,2.744,0.351,4.691
		c-4.784-7.012-11.7-9.919-18.6-12.852c-8.502-3.612-17.38-6.32-25.578-10.663c-3.65-1.934-6.939-4.28-9.324-7.732
		c-0.963-1.393-1.544-2.661-0.067-4.209c1.21-1.269,1.035-2.863-0.293-3.989c-1.262-1.068-1.372-2.359-1.369-3.809
		c0.017-6.746,0.057-13.492-0.026-20.236c-0.022-1.828,0.218-3.442,1.542-4.772c-0.128-0.408-0.257-0.816-0.384-1.219
		C507.683,154.206,506.706,153.786,505.735,153.363z"/>
	<path fill-rule="evenodd" clip-rule="evenodd" fill="#F8F8F8" stroke="#231F20" stroke-width="0.5" stroke-miterlimit="10" d="
		M672.656,131.718c-0.677,2.166-1.746,4.08-2.135,6.584C668.211,133.866,668.62,132.712,672.656,131.718z"/>
	<path fill-rule="evenodd" clip-rule="evenodd" fill="#F9F9F9" stroke="#231F20" stroke-width="0.5" stroke-miterlimit="10" d="
		M428.136,110.284c0.001-0.505,0.002-1.009,0.003-1.514c1.695,0.462,2.64,1.975,4.022,2.89c6.426,4.254,13.719,6.374,20.959,8.592
		c11.465,3.51,23.202,6.092,34.522,10.103c4.257,1.508,8.361,3.308,12.059,5.949c1.576,1.126,2.937,2.446,4.012,4.064
		c0.503,0.758,0.723,1.423,0.012,2.236c-1.575,1.802-1.287,3.467,0.532,4.947c0.625,0.509,1.107,1.234,0.613,1.951
		c-0.618,0.898-1.343,0.134-1.94-0.216c-22.454-13.143-46.052-24.053-69.335-35.578
		C431.669,112.754,429.656,111.902,428.136,110.284z"/>
	<path fill-rule="evenodd" clip-rule="evenodd" fill="#FAFAFA" stroke="#231F20" stroke-width="0.5" stroke-miterlimit="10" d="
		M247.703,14.137c1.274,0.114,2.024,0.806,2.036,2.08c0.012,1.402-0.79,2.195-2.186,2.155c-1.418-0.04-2.125-0.933-2.031-2.306
		C245.609,14.79,246.441,14.175,247.703,14.137z"/>
	<path fill-rule="evenodd" clip-rule="evenodd" fill="#F9F9F9" stroke="#231F20" stroke-width="0.5" stroke-miterlimit="10" d="
		M700.111,14.149c1.255,0.113,2.064,0.791,2.034,2.187c-0.028,1.263-0.774,1.963-2.016,2.027c-1.396,0.073-2.224-0.746-2.256-2.044
		C697.841,15.021,698.627,14.201,700.111,14.149z"/>
	<path fill-rule="evenodd" clip-rule="evenodd" fill="#FCFCFC" stroke="#231F20" stroke-width="0.5" stroke-miterlimit="10" d="
		M735.794,14.162c1.363,0.105,2.097,0.895,2.098,2.092c0.001,1.346-0.841,2.172-2.233,2.1c-1.388-0.07-2.1-0.911-1.992-2.311
		C733.768,14.718,734.658,14.234,735.794,14.162z"/>
	<path fill-rule="evenodd" clip-rule="evenodd" fill="#F9F9F9" stroke="#231F20" stroke-width="0.5" stroke-miterlimit="10" d="
		M295.179,14.134c1.588,0.14,2.332,1.008,2.232,2.296c-0.1,1.292-0.979,2.067-2.369,1.927c-1.244-0.126-1.931-0.877-1.906-2.135
		C293.164,14.802,294.064,14.234,295.179,14.134z"/>
	<path fill-rule="evenodd" clip-rule="evenodd" fill="#FDFDFD" stroke="#231F20" stroke-width="0.5" stroke-miterlimit="10" d="
		M257.347,16.209c0.251-1.385,1.001-2.159,2.402-2.012c1.251,0.131,1.949,0.883,1.874,2.179c-0.083,1.446-0.984,2.047-2.335,1.96
		C257.978,18.251,257.475,17.35,257.347,16.209z"/>
	<path fill-rule="evenodd" clip-rule="evenodd" fill="#FBFBFB" stroke="#231F20" stroke-width="0.5" stroke-miterlimit="10" d="
		M674.128,16.136c0.102-1.253,0.819-1.96,2.068-1.967c1.404-0.008,2.144,0.835,2.101,2.2c-0.039,1.247-0.787,2.01-2.06,1.996
		C674.853,18.35,674.143,17.56,674.128,16.136z"/>
	<path fill-rule="evenodd" clip-rule="evenodd" fill="#F9F9F9" stroke="#231F20" stroke-width="0.5" stroke-miterlimit="10" d="
		M319.058,14.13c1.287,0.111,2.105,0.753,2.086,2.189c-0.018,1.303-0.763,2.011-2.008,2.051c-1.404,0.044-2.172-0.774-2.158-2.153
		C316.991,14.962,317.725,14.255,319.058,14.13z"/>
	<path fill-rule="evenodd" clip-rule="evenodd" fill="#F9F9F9" stroke="#231F20" stroke-width="0.5" stroke-miterlimit="10" d="
		M626.508,16.207c0.113-1.382,0.885-2.137,2.264-2.038c1.244,0.089,1.944,0.872,1.903,2.152c-0.045,1.425-0.906,2.117-2.257,2.05
		C627.146,18.306,626.531,17.485,626.508,16.207z"/>
	<path fill-rule="evenodd" clip-rule="evenodd" fill="#F9F9F9" stroke="#231F20" stroke-width="0.5" stroke-miterlimit="10" d="
		M368.775,16.346c-0.122,1.298-0.797,2.052-2.074,2.026c-1.38-0.028-2.14-0.817-2.091-2.218c0.046-1.285,0.821-1.989,2.066-1.991
		C368.08,14.162,368.745,15.006,368.775,16.346z"/>
	<path fill-rule="evenodd" clip-rule="evenodd" fill="#FAFAFA" stroke="#231F20" stroke-width="0.5" stroke-miterlimit="10" d="
		M583.143,16.246c-0.131,1.237-0.75,2.053-2.026,2.12c-1.4,0.075-2.257-0.72-2.274-2.077c-0.019-1.368,0.843-2.159,2.233-2.121
		C582.354,14.204,582.987,15.012,583.143,16.246z"/>
	<path fill-rule="evenodd" clip-rule="evenodd" fill="#FAFAFA" stroke="#231F20" stroke-width="0.5" stroke-miterlimit="10" d="
		M390.587,14.139c1.317,0.178,2.117,0.897,2.037,2.273c-0.072,1.246-0.871,1.943-2.104,1.952c-1.364,0.01-2.199-0.784-2.188-2.123
		C388.345,14.894,389.222,14.207,390.587,14.139z"/>
	<path fill-rule="evenodd" clip-rule="evenodd" fill="#FDFDFD" stroke="#231F20" stroke-width="0.5" stroke-miterlimit="10" d="
		M509.717,14.174c1.15,0.119,1.98,0.765,1.92,2.208c-0.055,1.312-0.856,1.955-2.096,1.967c-1.415,0.013-2.188-0.86-2.134-2.196
		C507.455,14.948,508.217,14.193,509.717,14.174z"/>
	<path fill-rule="evenodd" clip-rule="evenodd" fill="#FCFCFC" stroke="#231F20" stroke-width="0.5" stroke-miterlimit="10" d="
		M485.637,14.165c1.458,0.036,2.25,0.836,2.242,2.165c-0.006,1.217-0.789,2.023-2.062,2.029c-1.364,0.007-2.18-0.714-2.17-2.146
		C483.654,14.89,484.463,14.314,485.637,14.165z"/>
	<path fill-rule="evenodd" clip-rule="evenodd" fill="#FAFAFA" stroke="#231F20" stroke-width="0.5" stroke-miterlimit="10" d="
		M412.136,16.487c0.091-1.41,0.714-2.224,1.985-2.312c1.387-0.096,2.269,0.658,2.325,2.029c0.05,1.23-0.669,2.061-1.949,2.158
		C413.086,18.471,412.382,17.653,412.136,16.487z"/>
	<path fill-rule="evenodd" clip-rule="evenodd" fill="#FAFAFA" stroke="#231F20" stroke-width="0.5" stroke-miterlimit="10" d="
		M140.706,14.152c1.287,0.231,2.039,0.997,1.895,2.364c-0.13,1.245-0.976,1.898-2.198,1.851c-1.358-0.053-2.165-0.891-2.083-2.229
		C138.403,14.801,139.304,14.139,140.706,14.152z"/>
	<path fill-rule="evenodd" clip-rule="evenodd" fill="#F9F9F9" stroke="#231F20" stroke-width="0.5" stroke-miterlimit="10" d="
		M128.508,14.131c1.207,0.076,2.042,0.642,2.136,1.928c0.101,1.383-0.604,2.233-1.993,2.311c-1.258,0.07-2.062-0.609-2.15-1.889
		C126.409,15.115,127.089,14.299,128.508,14.131z"/>
	<path fill-rule="evenodd" clip-rule="evenodd" fill="#F9F9F9" stroke="#231F20" stroke-width="0.5" stroke-miterlimit="10" d="
		M116.581,14.132c1.257,0.06,2.075,0.653,2.157,1.933c0.088,1.356-0.555,2.263-1.98,2.308c-1.24,0.039-2.059-0.621-2.158-1.9
		C114.493,15.085,115.225,14.319,116.581,14.132z"/>
	<path fill-rule="evenodd" clip-rule="evenodd" fill="#FAFAFA" stroke="#231F20" stroke-width="0.5" stroke-miterlimit="10" d="
		M164.304,14.135c1.404,0.148,2.221,0.92,2.128,2.292c-0.084,1.223-0.891,1.993-2.171,1.943c-1.384-0.055-2.171-0.869-2.09-2.264
		C162.246,14.833,163.087,14.222,164.304,14.135z"/>
	<path fill-rule="evenodd" clip-rule="evenodd" fill="#FBFBFB" stroke="#231F20" stroke-width="0.5" stroke-miterlimit="10" d="
		M178.302,16.358c-0.162,1.255-0.822,2.03-2.099,2.007c-1.378-0.025-2.142-0.801-2.079-2.21c0.064-1.434,0.954-2.077,2.3-1.977
		C177.706,14.275,178.251,15.15,178.302,16.358z"/>
	<path fill-rule="evenodd" clip-rule="evenodd" fill="#F9F9F9" stroke="#231F20" stroke-width="0.5" stroke-miterlimit="10" d="
		M47.465,16.231c-0.267,1.405-0.958,2.229-2.352,2.129c-1.379-0.098-2.084-0.936-1.984-2.297c0.093-1.262,0.918-1.898,2.146-1.902
		C46.692,14.157,47.246,15.096,47.465,16.231z"/>
	<path fill-rule="evenodd" clip-rule="evenodd" fill="#FCFCFC" stroke="#231F20" stroke-width="0.5" stroke-miterlimit="10" d="
		M237.915,16.218c-0.143,1.178-0.686,2.053-1.981,2.128c-1.365,0.08-2.229-0.57-2.298-2.001c-0.062-1.3,0.654-2.032,1.903-2.15
		C236.955,14.061,237.655,14.891,237.915,16.218z"/>
	<path fill-rule="evenodd" clip-rule="evenodd" fill="#FAFAFA" stroke="#231F20" stroke-width="0.5" stroke-miterlimit="10" d="
		M83.138,16.259c-0.259,1.439-1.005,2.218-2.405,2.102c-1.28-0.106-1.984-0.953-1.921-2.181c0.071-1.37,0.961-2.106,2.347-2.007
		C82.453,14.266,82.983,15.155,83.138,16.259z"/>
	<path fill-rule="evenodd" clip-rule="evenodd" fill="#FDFDFD" stroke="#231F20" stroke-width="0.5" stroke-miterlimit="10" d="
		M11.628,16.389c-0.103,1.266-0.842,1.943-2.093,1.961c-1.414,0.02-2.194-0.839-2.157-2.176c0.033-1.213,0.806-2.015,2.095-1.992
		C10.841,14.206,11.617,14.934,11.628,16.389z"/>
	<path fill-rule="evenodd" clip-rule="evenodd" fill="#F9F9F9" stroke="#231F20" stroke-width="0.5" stroke-miterlimit="10" d="
		M200.183,14.156c1.25,0.147,2.011,0.883,1.935,2.262c-0.07,1.263-0.861,1.929-2.096,1.95c-1.396,0.023-2.192-0.832-2.174-2.13
		S198.682,14.151,200.183,14.156z"/>
	<path fill-rule="evenodd" clip-rule="evenodd" fill="#F9F9F9" stroke="#231F20" stroke-width="0.5" stroke-miterlimit="10" d="
		M71.159,16.27c-0.123,1.396-0.846,2.1-2.099,2.1c-1.411,0.001-2.142-0.849-2.09-2.218c0.047-1.251,0.801-2.006,2.076-1.991
		C70.444,14.177,71.118,15.004,71.159,16.27z"/>
	<path fill-rule="evenodd" clip-rule="evenodd" fill="#FAFAFA" stroke="#231F20" stroke-width="0.5" stroke-miterlimit="10" d="
		M21.348,18.408c-1.379-0.187-2.141-0.972-2.049-2.309c0.083-1.207,0.864-1.97,2.112-1.944c1.336,0.027,2.167,0.776,2.14,2.158
		C23.525,17.703,22.639,18.317,21.348,18.408z"/>
	<path fill-rule="evenodd" clip-rule="evenodd" fill="#FAFAFA" stroke="#231F20" stroke-width="0.5" stroke-miterlimit="10" d="
		M721.678,16.247c0.151-1.343,0.89-2.11,2.243-2.089c1.246,0.02,2.006,0.788,2.052,2.002c0.051,1.342-0.72,2.19-2.082,2.214
		C722.542,18.396,721.808,17.602,721.678,16.247z"/>
	<path fill-rule="evenodd" clip-rule="evenodd" fill="#F9F9F9" stroke="#231F20" stroke-width="0.5" stroke-miterlimit="10" d="
		M440.236,16.243c-0.062,1.357-0.794,2.144-2.181,2.123c-1.257-0.018-2.02-0.736-2.033-2.03c-0.016-1.408,0.775-2.182,2.156-2.166
		C439.438,14.183,440.139,14.927,440.236,16.243z"/>
	<path fill-rule="evenodd" clip-rule="evenodd" fill="#F9F9F9" stroke="#231F20" stroke-width="0.5" stroke-miterlimit="10" d="
		M188.017,14.136c1.281,0.081,2.107,0.67,2.182,1.958c0.081,1.39-0.654,2.228-2.047,2.272c-1.249,0.04-2.064-0.628-2.141-1.921
		C185.928,15.048,186.686,14.303,188.017,14.136z"/>
	<path fill-rule="evenodd" clip-rule="evenodd" fill="#F9F9F9" stroke="#231F20" stroke-width="0.5" stroke-miterlimit="10" d="
		M555.053,16.171c0.106-1.264,0.813-1.998,2.071-2.002c1.382-0.005,2.181,0.778,2.135,2.181c-0.047,1.423-0.952,2.107-2.302,2.011
		C555.702,18.27,555.066,17.454,555.053,16.171z"/>
	<path fill-rule="evenodd" clip-rule="evenodd" fill="#FAFAFA" stroke="#231F20" stroke-width="0.5" stroke-miterlimit="10" d="
		M221.653,16.117c0.226-1.29,0.979-2.035,2.339-1.95c1.252,0.078,1.964,0.879,1.955,2.091c-0.011,1.34-0.813,2.152-2.18,2.113
		C222.413,18.333,221.723,17.505,221.653,16.117z"/>
	<path fill-rule="evenodd" clip-rule="evenodd" fill="#F9F9F9" stroke="#231F20" stroke-width="0.5" stroke-miterlimit="10" d="
		M102.579,16.437c0.122-1.495,0.859-2.291,2.218-2.277c1.362,0.014,2.175,0.844,2.138,2.192c-0.033,1.22-0.819,1.974-2.066,2.024
		C103.484,18.433,102.788,17.625,102.579,16.437z"/>
	<path fill-rule="evenodd" clip-rule="evenodd" fill="#F9F9F9" stroke="#231F20" stroke-width="0.5" stroke-miterlimit="10" d="
		M305.003,16.32c0.094-1.346,0.794-2.169,2.189-2.151c1.254,0.017,2.015,0.734,2.058,2.021c0.043,1.278-0.652,2.077-1.903,2.173
		C305.98,18.466,305.179,17.727,305.003,16.32z"/>
	<path fill-rule="evenodd" clip-rule="evenodd" fill="#F9F9F9" stroke="#231F20" stroke-width="0.5" stroke-miterlimit="10" d="
		M604.848,14.13c1.396,0.17,2.212,0.945,2.109,2.288c-0.102,1.332-1.008,2.057-2.374,1.946c-1.252-0.101-1.956-0.876-1.932-2.125
		C602.679,14.842,603.556,14.214,604.848,14.13z"/>
	<path fill-rule="evenodd" clip-rule="evenodd" fill="#FAFAFA" stroke="#231F20" stroke-width="0.5" stroke-miterlimit="10" d="
		M271.36,18.409c-1.377-0.188-2.14-0.973-2.048-2.31c0.083-1.207,0.864-1.97,2.113-1.944c1.336,0.027,2.167,0.776,2.14,2.158
		C273.538,17.703,272.652,18.317,271.36,18.409z"/>
	<path fill-rule="evenodd" clip-rule="evenodd" fill="#F9F9F9" stroke="#231F20" stroke-width="0.5" stroke-miterlimit="10" d="
		M57.089,14.137c1.332,0.093,2.165,0.757,2.148,2.178c-0.015,1.284-0.772,2.022-2.028,2.05c-1.383,0.029-2.199-0.757-2.189-2.146
		C55.029,14.953,55.806,14.275,57.089,14.137z"/>
	<path fill-rule="evenodd" clip-rule="evenodd" fill="#FAFAFA" stroke="#231F20" stroke-width="0.5" stroke-miterlimit="10" d="
		M33.46,14.137c1.321,0.196,2.126,0.959,2.027,2.304c-0.088,1.205-0.897,1.958-2.14,1.936c-1.339-0.024-2.184-0.778-2.158-2.157
		C31.217,14.828,32.125,14.219,33.46,14.137z"/>
	<path fill-rule="evenodd" clip-rule="evenodd" fill="#FAFAFA" stroke="#231F20" stroke-width="0.5" stroke-miterlimit="10" d="
		M531.175,16.314c0.12-1.381,0.877-2.143,2.221-2.15c1.24-0.007,2.045,0.748,2.118,1.955c0.08,1.34-0.7,2.194-2.062,2.249
		C532.095,18.423,531.352,17.639,531.175,16.314z"/>
	<path fill-rule="evenodd" clip-rule="evenodd" fill="#FAFAFA" stroke="#231F20" stroke-width="0.5" stroke-miterlimit="10" d="
		M283.365,14.131c1.333,0.138,2.171,0.857,2.138,2.21c-0.031,1.214-0.796,1.99-2.042,2.028c-1.349,0.04-2.213-0.682-2.257-2.051
		C281.16,14.925,282.043,14.277,283.365,14.131z"/>
	<path fill-rule="evenodd" clip-rule="evenodd" fill="#FBFBFB" stroke="#231F20" stroke-width="0.5" stroke-miterlimit="10" d="
		M152.411,14.129c1.35,0.127,2.188,0.879,2.125,2.227c-0.062,1.337-0.938,2.088-2.312,2.016c-1.261-0.066-2.015-0.859-2.015-2.07
		C150.21,14.966,151.035,14.212,152.411,14.129z"/>
	<path fill-rule="evenodd" clip-rule="evenodd" fill="#FBFBFB" stroke="#231F20" stroke-width="0.5" stroke-miterlimit="10" d="
		M92.884,14.12c1.412,0.184,2.241,0.961,2.146,2.297c-0.094,1.33-0.997,2.064-2.372,1.947c-1.249-0.106-1.988-0.888-1.962-2.12
		C90.725,14.875,91.612,14.216,92.884,14.12z"/>
	<path fill-rule="evenodd" clip-rule="evenodd" fill="#FAFAFA" stroke="#231F20" stroke-width="0.5" stroke-miterlimit="10" d="
		M464.108,16.221c-0.118,1.351-0.847,2.157-2.197,2.151c-1.354-0.005-2.173-0.83-2.142-2.176c0.027-1.21,0.786-1.993,2.038-2.028
		C463.156,14.13,463.931,14.863,464.108,16.221z"/>
	<path fill-rule="evenodd" clip-rule="evenodd" fill="#FBFBFB" stroke="#231F20" stroke-width="0.5" stroke-miterlimit="10" d="
		M654.615,16.34c-0.25,1.325-0.979,2.107-2.361,2.032c-1.26-0.068-2.018-0.856-2.018-2.067c0-1.333,0.817-2.165,2.19-2.151
		C653.803,14.167,654.475,15.026,654.615,16.34z"/>
	<path fill-rule="evenodd" clip-rule="evenodd" fill="#FAFAFA" stroke="#231F20" stroke-width="0.5" stroke-miterlimit="10" d="
		M214.094,16.157c-0.088,1.362-0.788,2.188-2.146,2.214c-1.359,0.026-2.189-0.78-2.192-2.123c-0.003-1.209,0.731-2.01,1.987-2.074
		C213.093,14.104,213.881,14.818,214.094,16.157z"/>
</g>
</svg>
